<?xml version="1.0" encoding="UTF-8"?>
<svg width="220px" height="220px" viewBox="0 0 220 220" version="1.1" xmlns="http://www.w3.org/2000/svg" xmlns:xlink="http://www.w3.org/1999/xlink">
    <title>agile</title>
    <g id="Desktop-v3" stroke="none" stroke-width="1" fill="none" fill-rule="evenodd">
        <g id="agile">
            <g id="interactive-copy-2" fill="#41EDC7">
                <circle id="Oval" cx="110" cy="110" r="110"></circle>
            </g>
            <path d="M101.41425,83.41425 L98.8285,86 L116,86 L116,90 L98.8285,90 L101.41425,92.58575 L98.58575,95.41425 L92.58575,89.41425 C92.210655,89.0391743 91.9999271,88.5304508 91.9999271,88 C91.9999271,87.4695492 92.210655,86.9608257 92.58575,86.58575 L98.58575,80.58575 L101.41425,83.41425 Z M109.65675,54 C107.326771,53.993741 105.049139,54.6907974 103.12175,56 C105.049139,57.3092026 107.326771,58.006259 109.65675,58 L146,58 L146,54 L136,54 L136,49.9999424 L152,49.9999424 C155.313708,49.9999424 158,52.6862915 158,56 C158,59.3137085 155.313708,62.0000576 152,62.0000576 L109.65675,62.0000576 C105.502083,62.0112944 101.515561,60.3600261 98.58575,57.41425 C98.210655,57.0391743 97.9999271,56.5304508 97.9999271,56 C97.9999271,55.4695492 98.210655,54.9608257 98.58575,54.58575 C101.515561,51.6399739 105.502083,49.9887056 109.65675,49.9999424 L132,49.9999424 L132,54 L109.65675,54 Z M150,58 L152,58 C153.104569,58 154,57.1045695 154,56 C154,54.8954305 153.104569,54 152,54 L150,54 L150,58 Z M129.68075,106.50925 L132.58575,109.41425 L135.41425,106.58575 L129.41425,100.58575 C129.039174,100.210655 128.530451,99.9999271 128,99.9999271 C127.469549,99.9999271 126.960826,100.210655 126.58575,100.58575 L120.58575,106.58575 L123.41425,109.41425 L125.4865,107.342 C122.912653,120.490583 111.39812,129.982381 98,130 L92,130 L92,134 L98,134 C114.11425,134 127.4825,122.02625 129.68075,106.50925 Z M147.41425,95.41425 L152,90.8285 L156.58575,95.41425 L159.41425,92.58575 L154.8285,88 L159.41425,83.41425 L156.58575,80.58575 L152,85.1715 L147.41425,80.58575 L144.58575,83.41425 L149.1715,88 L144.58575,92.58575 L147.41425,95.41425 Z M168,66 L66,66 L66,52 C66,50.8954305 65.1045695,50 64,50 L60,50 C54.4797226,50.0061999 50.0061999,54.4797226 50,60 L50,64 L54,64 L54,60 C54.0038574,56.6878906 56.6878906,54.0038574 60,54 L62,54 L62,130 L60,130 C57.8351427,129.997596 55.7285887,130.701449 54,132.00475 L54,68 L50,68 L50,140 C50.0061999,145.520277 54.4797226,149.9938 60,150 L104,150 L104,146 L60,146 C56.6862916,146 54,143.313708 54,140 C54,136.686292 56.6862916,134 60,134 L64,134 C65.1045695,134 66,133.104569 66,132 L66,70 L166,70 L166,146 L162,146 L162,150 L168,150 C169.104569,150 170,149.104569 170,148 L170,68 C170,66.8954305 169.104569,66 168,66 Z M158.000363,146.113 L158.000363,162 C157.99504,166.416222 154.416222,169.99504 150,170 L122,170 C121.522604,170 121.060963,169.829189 120.6985,169.5185 L108.1335,158.7485 C106.414673,157.276676 105.650771,154.974964 106.1485,152.7675 C106.820218,149.962213 109.333939,147.987886 112.2185,148 L112.55825,148 C113.945371,148.001739 115.290931,148.473672 116.37525,149.33875 L122.00025,153.83875 L122.00025,133.775 C122.003426,132.135036 122.674699,130.567166 123.85925,129.433 C125.044499,128.295502 126.64685,127.697911 128.2875,127.7815 C131.517896,127.961802 134.034708,130.651762 134,133.887 L134,140.34275 C136.066911,139.612108 138.367809,140.067973 140,141.5315 C142.274872,139.490214 145.721857,139.489352 147.99775,141.5295 C149.168928,140.47292 150.712017,139.925131 152.28725,140.00675 C155.518038,140.186936 158.035106,142.877382 158.000363,146.113 L158.000363,146.113 Z M154.000333,146.113 C154.019386,145.019625 153.189397,144.097682 152.1,144.0025 L152.1,144.0025 C151.552897,143.975111 151.018505,144.173324 150.621595,144.550861 C150.224684,144.928399 150,145.452212 150,146 C150,147.104569 149.104569,148 148,148 C146.895431,148 146,147.104569 146,146 C146,144.895431 145.104569,144 144,144 C142.895431,144 142,144.895431 142,146 C142,147.104569 141.104569,148 140,148 C138.895431,148 138,147.104569 138,146 C138,144.895431 137.104569,144 136,144 C134.895431,144 134,144.895431 134,146 C134,147.104569 133.104569,148 132,148 C130.895431,148 130,147.104569 130,146 L130,133.887 C130.019272,132.793622 129.189377,131.871674 128.1,131.77625 C127.552391,131.749674 127.017771,131.948418 126.6205,132.32625 C126.222528,132.702794 125.997955,133.227129 126,133.775 L126,158 C126.000192,158.769042 125.559414,159.470076 124.866251,159.803168 C124.173088,160.136259 123.350333,160.042401 122.75,159.56175 L113.875,152.46175 C113.500682,152.162843 113.036019,151.999788 112.557,151.99925 L112.21725,151.99925 C111.202341,151.977783 110.305716,152.65659 110.051,153.63925 C109.877601,154.403197 110.140929,155.200394 110.73525,155.71075 L122.73975,166 L150,166 C152.208054,165.997383 153.997383,164.208054 154.000333,162 L154.000333,146.113 Z M93.41425,117.413 L98,112.8285 L102.58575,117.41425 L105.41425,114.58575 L100.8285,110 L105.41425,105.41425 L102.58575,102.58575 L98,107.1715 L93.41425,102.58575 L90.58575,105.41425 L95.1715,110 L90.58575,114.58575 L93.41425,117.413 Z M88,130 C88,134.418278 84.418278,138 80,138 C75.581722,138 72,134.418278 72,130 C72,125.581722 75.581722,122 80,122 C84.4162219,122.00496 87.9950401,125.583778 88,130 L88,130 Z M84,130 C84,127.790861 82.209139,126 80,126 C77.790861,126 76,127.790861 76,130 C76,132.209139 77.790861,134 80,134 C82.2080539,133.997383 83.9973826,132.208054 84,130 L84,130 Z M88,88 C88,92.418278 84.418278,96 80,96 C75.581722,96 72,92.418278 72,88 C72,83.581722 75.581722,80 80,80 C84.4162219,80.0049599 87.9950401,83.5837781 88,88 L88,88 Z M84,88 C84,85.790861 82.209139,84 80,84 C77.790861,84 76,85.790861 76,88 C76,90.209139 77.790861,92 80,92 C82.2080539,91.9973826 83.9973826,90.2080539 84,88 L84,88 Z M160,128 C160,132.418278 156.418278,136 152,136 C147.581722,136 144,132.418278 144,128 C144,123.581722 147.581722,120 152,120 C156.416222,120.00496 159.99504,123.583778 160,128 L160,128 Z M156,128 C156,125.790861 154.209139,124 152,124 C149.790861,124 148,125.790861 148,128 C148,130.209139 149.790861,132 152,132 C154.208054,131.997383 155.997383,130.208054 156,128 Z M120,88 C120,83.581722 123.581722,80 128,80 C132.418278,80 136,83.581722 136,88 C136,92.418278 132.418278,96 128,96 C123.583778,95.9950401 120.00496,92.4162219 120,88 Z M124,88 C124,90.209139 125.790861,92 128,92 C130.209139,92 132,90.209139 132,88 C132,85.790861 130.209139,84 128,84 C125.791946,84.0026174 124.002617,85.7919461 124,88 Z" id="Shape" fill="#101418" fill-rule="nonzero"></path>
        </g>
    </g>
</svg>