<?xml version="1.0" encoding="UTF-8"?>
<svg width="220px" height="220px" viewBox="0 0 220 220" version="1.1" xmlns="http://www.w3.org/2000/svg" xmlns:xlink="http://www.w3.org/1999/xlink">
    <title>colaborative</title>
    <g id="Desktop-v3" stroke="none" stroke-width="1" fill="none" fill-rule="evenodd">
        <g id="colaborative">
            <circle id="Oval" fill="#52CEFB" cx="110" cy="110" r="110"></circle>
            <path d="M84,102 L116,102 L116,106 L84,106 L84,102 Z M84,94 L84,98 L88,98 L88,94 L84,94 Z M92,94 L92,98 L96,98 L96,94 L92,94 Z M134.238,128.9435 L128.96425,130.32325 L129.077,140.66675 C129.084768,141.375359 128.716978,142.035171 128.110182,142.401211 C127.503387,142.767252 126.748197,142.784861 126.125,142.4475 L122.7845,140.639 C115.251025,136.553453 107.017351,133.918884 98.5115,132.87225 L99.20975,142.2285 C99.2504245,142.774049 99.0658514,143.312447 98.6990198,143.718295 C98.3321882,144.124144 97.8151214,144.362013 97.26825,144.3765 L90.258,144.562 C90.24,144.562 90.222,144.562 90.204,144.562 C89.1434629,144.561418 88.2677725,143.733116 88.20825,142.67425 L87.66025,132.9115 L86.17,132.9275 L86.14825,132.9275 C85.052119,132.927565 84.1601704,132.045316 84.14825,130.94925 L83.9998807,117.344 C83.9880613,116.239501 84.8737514,115.334448 85.97825,115.3225 L97.7485,115.19425 C106.431422,114.006194 114.805544,111.162315 122.41625,106.817 L125.71625,104.936 C126.331957,104.585066 127.087404,104.586174 127.702079,104.938914 C128.316753,105.291655 128.698854,105.943345 128.7065,106.652 L128.819,116.99575 L134.1215,118.26025 C135.014345,118.473021 135.64776,119.266207 135.65775,120.184 L135.732865,126.987 C135.742546,127.904919 135.12621,128.71165 134.238,128.9435 L134.238,128.9435 Z M95.0645,140.43325 L94.49775,132.8375 L91.66375,132.86825 L92.09275,140.512 L95.0645,140.43325 Z M96.0315,128.8205 L95.927,119.21425 L88.02175,119.3005 L88.126,128.9065 L96.0315,128.8205 Z M125.04,137.31175 L124.744,110.09425 L124.39675,110.29225 C116.824826,114.61629 108.53431,117.537492 99.92425,118.91525 L100.03425,129.03275 C106.280689,129.894362 112.387685,131.568884 118.2,134.01375 L117.996,115.27325 L121.996,115.22975 L122.221,135.849 C123.0495,136.258 123.87325,136.67975 124.689,137.12125 L125.04,137.31175 Z M131.715,125.469 L131.675,121.789 L128.86425,121.11875 L128.9195,126.20025 L131.715,125.469 Z M144,148.0465 L144,141.60725 L147.09275,142.8705 L148.6055,139.16725 L144,137.28625 L144,130 L140,130 L140,135.6525 L136.8795,134.3775 L135.36675,138.0805 L140,139.97325 L140,148.0465 L144,148.0465 Z M154,126 L158,126 L158,122 L154,122 L154,126 Z M100,94 L100,98 L104,98 L104,94 L100,94 Z M50,76 L50,72 C50,70.8954305 50.8954305,70 52,70 L54,70 L54,62 L58,62 L58,70 L78,70 L78,54 L58,54 L58,58 L54,58 L54,54 C54.0026174,51.7919461 55.7919461,50.0026174 58,50 L78,50 C80.2080539,50.0026174 81.9973826,51.7919461 82,54 L82,70 L84,70 C85.1045695,70 86,70.8954305 86,72 L86,76 C85.9962801,79.3121664 83.3121664,81.9962801 80,82 L56,82 C52.6878336,81.9962801 50.0037199,79.3121664 50,76 Z M54,76 C54.00124,77.1040555 54.8959445,77.99876 56,78 L80,78 C81.1040555,77.99876 81.99876,77.1040555 82,76 L82,74 L54,74 L54,76 Z M156,96 L156,86 L152,86 L152,94 L148,94 L148,98 L154,98 C155.104569,98 156,97.1045695 156,96 Z M92,76 L92,72 C92,70.8954305 92.8954305,70 94,70 L96,70 L96,54 C96.0026174,51.7919461 97.7919461,50.0026174 100,50 L120,50 C122.208054,50.0026174 123.997383,51.7919461 124,54 L124,70 L126,70 C127.104569,70 128,70.8954305 128,72 L128,76 C127.99628,79.3121664 125.312166,81.9962801 122,82 L98,82 C94.6878336,81.9962801 92.0037199,79.3121664 92,76 Z M100,70 L120,70 L120,54 L100,54 L100,70 Z M96,76 C96.00124,77.1040555 96.8959445,77.99876 98,78 L122,78 C123.104055,77.99876 123.99876,77.1040555 124,76 L124,74 L96,74 L96,76 Z M62,58 L62,66 L66,66 L66,58 L62,58 Z M150,122 L140,122 L140,126 L150,126 L150,122 Z M104,66 L108,66 L108,58 L104,58 L104,66 Z M136,86 L84,86 C79.5837781,86.0049599 76.0049599,89.5837781 76,94 L76,102 L74,102 C69.5837781,102.00496 66.0049599,105.583778 66,110 L66,116 L70,116 L70,110 C70.0026174,107.791946 71.7919461,106.002617 74,106 L76,106 L76,150 L80,150 L80,94 C80.0026174,91.7919461 81.7919461,90.0026174 84,90 L136,90 C138.208054,90.0026174 139.997383,91.7919461 140,94 L140,107.07 L135.166,109.045 L136.67875,112.748 L140,111.391 L140,118 L144,118 L144,109.75725 L148.405,107.95725 L147.77775,106.42125 C149.137537,107.095879 149.998296,108.48206 150,110 L150,118 L154,118 L154,110 C154.000779,108.630379 153.647704,107.283785 152.975,106.09075 L156.2215,104.76575 L154.70875,101.06275 L150.8,102.65825 L151.38475,104.09 C149.914369,102.744437 147.993128,101.99874 146,102 L144,102 L144,94 C143.99504,89.5837781 140.416222,86.0049599 136,86 Z M134,76 L134,72 C134,70.8954305 134.895431,70 136,70 L138,70 L138,54 C138.002617,51.7919461 139.791946,50.0026174 142,50 L162,50 C164.208054,50.0026174 165.997383,51.7919461 166,54 L166,70 L168,70 C169.104569,70 170,70.8954305 170,72 L170,76 C169.99628,79.3121664 167.312166,81.9962801 164,82 L140,82 C136.687834,81.9962801 134.00372,79.3121664 134,76 Z M142,70 L162,70 L162,54 L142,54 L142,70 Z M138,76 C138.00124,77.1040555 138.895945,77.99876 140,78 L164,78 C165.104055,77.99876 165.99876,77.1040555 166,76 L166,74 L138,74 L138,76 Z M146,66 L150,66 L150,58 L146,58 L146,66 Z M152,170 L68,170 C63.5837781,169.99504 60.0049599,166.416222 60,162 L60,156 C60,154.895431 60.8954305,154 62,154 L66,154 L66,120 L70,120 L70,154 L95.17175,154 C97.5144225,153.993559 99.7622945,154.924666 101.41425,156.58575 C102.317678,157.494235 103.547034,158.003496 104.82825,158 L113.17175,158 C114.452966,158.003496 115.682322,157.494235 116.58575,156.58575 C118.237705,154.924666 120.485577,153.993559 122.82825,154 L150,154 L150,130 L154,130 L154,141.37075 L156.423,142.3605 L154.9105,146.0635 L154,145.69175 L154,154 L158,154 C159.104569,154 160,154.895431 160,156 L160,162 C159.99504,166.416222 156.416222,169.99504 152,170 Z M68,166 L152,166 C154.208054,165.997383 155.997383,164.208054 156,162 L156,157.999982 L122.82825,157.999982 C121.547034,157.996504 120.317678,158.505765 119.41425,159.41425 C117.762295,161.075334 115.514423,162.006441 113.17175,162 L104.82825,162 C102.485577,162.006441 100.237705,161.075334 98.58575,159.41425 C97.6823223,158.505765 96.4529659,157.996504 95.17175,157.999982 L64,157.999982 L64,162 C64.0026174,164.208054 65.7919461,165.997383 68,166 Z M64,86 L64,96 C64,97.1045695 64.8954305,98 66,98 L72,98 L72,94 L68,94 L68,86 L64,86 Z" id="Shape" fill="#101418" fill-rule="nonzero"></path>
        </g>
    </g>
</svg>