<?xml version="1.0" encoding="UTF-8"?>
<svg width="220px" height="220px" viewBox="0 0 220 220" version="1.1" xmlns="http://www.w3.org/2000/svg" xmlns:xlink="http://www.w3.org/1999/xlink">
    <title>equality</title>
    <g id="Desktop-v3" stroke="none" stroke-width="1" fill="none" fill-rule="evenodd">
        <g id="equality">
            <circle id="Oval" fill="#9148F2" cx="110" cy="110" r="110"></circle>
            <path d="M170,118 L170,116.035 C169.986699,111.574536 167.032192,107.657664 162.747,106.4195 L154.72825,104.128 L152,102.764 L152,96.489 C155.260361,93.8748295 157.370795,90.0906523 157.8815,85.943 C160.965908,85.552593 163.422916,83.1740467 163.913186,80.1039281 C164.403457,77.0338094 162.80942,74.008348 160,72.67675 L160,70 C160.000464,65.7563939 158.314904,61.6864615 155.314221,58.6857788 C152.313538,55.6850962 148.243606,53.9995358 144,54 L140,54 C134.520117,54.0028487 129.339482,56.4998695 125.9235,60.78475 C125.340769,56.0779841 121.536336,52.4253944 116.80975,52.03475 C115.228091,50.7147356 113.231859,49.9942971 111.17175,49.9999664 L94,49.9999664 C92.8954305,49.9999664 92,50.8954305 92,52 L92,56 C91.9985499,57.9597101 92.7195049,59.8511933 94.025,61.31275 C94.0095,61.5415 94,61.77075 94,62 L94,64 L70,64 C70.0038574,60.6878906 72.6878906,58.0038574 76,58 L88,58 L88,54 L76,54 C70.4797226,54.0061999 66.0061999,58.4797226 66,64 L66,72.0725 C62.5581876,72.5717479 60.0048601,75.5221672 60.0048601,79 C60.0048601,82.4778328 62.5581876,85.4282521 66,85.9275 L66,86 C65.990709,89.8983992 67.4142541,93.6642989 70,96.58175 L70,98.43175 C69.3378572,98.077212 68.5315828,98.1308602 67.92225,98.57 C64.349767,101.101468 62.1645051,105.156113 62.01425,109.532 L57.78625,110.66525 C54.3284205,111.457398 51.5456513,114.016143 50.46675,117.3955 L54.27975,118.6045 C54.9305658,116.567098 56.6129748,115.02761 58.7,114.55975 C58.72775,114.5535 58.7555,114.54675 58.783,114.53925 L62.4555,113.55475 C63.1473566,116.207464 64.6095385,118.595776 66.6575,120.41825 C66.67,120.4295 67.9505,121.4505 68.00025,121.48525 L68.00025,128 C65.7921961,128.002617 64.0028674,129.791946 64.00025,132 L54,132 L54,122 L50,122 L50,154 C50.0049599,158.416222 53.5837781,161.99504 58,162 L63.3535,162 C63.55,162.412333 63.7655,162.813167 64,163.2025 L64,168 C64,169.104569 64.8954305,170 66,170 L160,170 C160.615848,170 161.197349,169.716246 161.576352,169.230833 C161.955355,168.745419 162.089593,168.112466 161.94025,167.515 L158.5615,154 L162,154 C166.416222,153.99504 169.99504,150.416222 170,146 L170,122 L166,122 L166,124 L160.05925,124 C159.611664,123.240809 159.096582,122.523492 158.52025,121.85675 L157.51275,120.69175 L154.48775,123.30825 L155.495,124.473 C156.10883,125.181044 156.625315,125.967921 157.03075,126.81275 C157.037,126.82675 157.041,126.84125 157.0475,126.855 C157.466045,127.740822 157.751216,128.683699 157.89375,129.653 C157.89725,129.678 157.90325,129.703 157.90675,129.728 C157.919,129.81875 157.92675,129.91 157.9365,130.001 L156,130.001 C155.8685,130.001 146,131.9615 146,131.9615 L146,120 L150.8,123.6 C151.370361,124.027738 152.125293,124.119522 152.781531,123.840911 C153.437769,123.562301 153.896081,122.955428 153.9845,122.248 L155.695,108.5645 L161.64875,110.2645 C164.220172,111.007581 165.992789,113.358373 166,116.035 L166,118 L170,118 Z M158,76.1715 C159.198746,76.5952224 160.000206,77.7285708 160.000206,79 C160.000206,80.2714292 159.198746,81.4047776 158,81.8285 L158,76.1715 Z M66,81.8285 C64.8012541,81.4047776 63.9997939,80.2714292 63.9997939,79 C63.9997939,77.7285708 64.8012541,76.5952224 66,76.1715 L66,81.8285 Z M146,58.165 C151.773817,59.1428348 155.999531,64.1439672 156,70 L156,71.3965 L146,63.06325 L146,58.165 Z M154,74.93675 L154,84 C153.997958,87.894975 152.106597,91.5469328 148.926601,93.7960347 C145.746605,96.0451366 141.673173,96.6118723 138,95.31625 L138,90.46625 C139.761683,92.0466874 142.288199,92.442987 144.449172,91.4778423 C146.610145,90.5126977 148.001211,88.3667082 148,86 L144,86 C144,87.1045695 143.104569,88 142,88 C140.895431,88 140,87.1045695 140,86 L138,86 L138,71 L143.9345,66.55 L154,74.93675 Z M126,72.1715 C127.198746,72.5952224 128.000206,73.7285708 128.000206,75 C128.000206,76.2714292 127.198746,77.4047776 126,77.8285 L126,72.1715 Z M125.999945,82 L125.999945,81.9275 C129.340496,81.442707 131.859246,78.6430436 131.989441,75.2700647 C132.119635,71.8970859 129.824187,68.9115981 126.531,68.17075 C128.249273,62.1555861 133.744233,58.0062162 140,58 L142,58 L142,63 L134.8,68.4 C134.296388,68.7777088 134,69.3704854 134,70 L134,105.96075 L128.78,104.9165 C126.98871,103.06053 125.991449,100.579394 125.999945,98 L125.999945,82 Z M123.97975,120.28275 L125.67975,108.376 L135.56675,110.35375 C139.302102,111.108274 141.990999,114.386715 142,118.1975 L142,128 L132,128 L132,124 L128,124 L128,128 C127.898222,127.999986 127.796592,128.007759 127.696,128.02325 L108.72775,130.94075 L92,128.55125 L92,124 L88,124 L88,125.528 L87.78875,125.1055 C87.5952375,124.718539 87.2814612,124.404763 86.8945,124.21125 L84,122.764 L84,121.48525 C87.7509437,118.862298 89.9895989,114.577046 90,110 C90,109.74675 89.99175,109.49525 89.97825,109.245 L94.31925,108.376 L96.01925,120.28275 C96.1263737,121.032655 96.647978,121.657681 97.3666117,121.89726 C98.0852454,122.13684 98.8775608,121.949852 99.41325,121.41425 L105.125,115.7025 L108.1015,124.632 C108.373702,125.44926 109.138601,126.000423 110,126 L110,126 C110.860806,125.999956 111.62502,125.449126 111.89725,124.6325 L114.875,115.7025 L120.58675,121.41425 C121.122439,121.949852 121.914755,122.13684 122.633388,121.89726 C123.352022,121.657681 123.873626,121.032655 123.98075,120.28275 L123.97975,120.28275 Z M142,132 L142,135.694 L122.36925,132.88975 L128.153,132 L142,132 Z M86.898,101.23325 C87.9781707,100.887099 89.0181142,100.426131 90,99.85825 L90,105.162 L89.19175,105.32375 C88.6619673,103.841267 87.8865638,102.458471 86.898,101.23325 Z M118,103.3335 L112.4,110.8 C112.26893,110.970608 112.168363,111.162606 112.10275,111.3675 L110,117.675 C110,117.675 107.8905,111.35425 107.88825,111.347 C107.820734,111.150986 107.723517,110.966503 107.6,110.8 L102,103.3335 L102,95.86 C106.951795,98.712978 113.048205,98.712978 118,95.86 L118,103.3335 Z M120.5985,106.53525 L121.81625,107.14425 L120.58575,115.75725 L116.64075,111.8125 L120.5985,106.53525 Z M103.35925,111.8125 L99.41425,115.75725 L98.18375,107.14425 L99.4015,106.53525 L103.35925,111.8125 Z M123.025,103.277 L122,102.764 L122,98 C121.997078,99.8087452 122.345178,101.60087 123.025,103.277 L123.025,103.277 Z M118,56.34275 C120.395428,57.1929907 121.997029,59.4581553 122,62 L122,65.1715 L118,61.1715 L118,56.34275 Z M122,70.82825 L122,82 C122,88.627417 116.627417,94 110,94 C103.372583,94 98,88.627417 98,82 L98,70.82825 L104.82825,64 L115.17175,64 L122,70.82825 Z M98,65.17175 L98,63.74675 C98.3975383,63.8492324 98.802415,63.9207796 99.211,63.96075 L98,65.17175 Z M96,53.9999813 L111.17175,53.9999813 C112.187512,53.9971644 113.177906,54.3171406 114,54.91375 L114,60 L100,60 C97.7919461,59.9973826 96.0026174,58.2080539 96,56 L96,53.9999813 Z M97.061,91.416 C97.3536667,91.817 97.6666667,92.2055 98,92.5815 L98,102.764 L95.345,104.0915 L94,104.36075 L94,96.58175 C95.3389573,95.069724 96.3777874,93.316592 97.061,91.416 L97.061,91.416 Z M94,72.1715 L94,77.8285 C92.8012541,77.4047776 91.9997939,76.2714292 91.9997939,75 C91.9997939,73.7285708 92.8012541,72.5952224 94,72.1715 L94,72.1715 Z M70,68 L71.17175,68 L70,69.17175 L70,68 Z M69.9999641,74.82825 L76.82825,68 L87.17175,68 L89.65675,70.485 C88.7743589,71.5252351 88.2166475,72.8015563 88.05275,74.15575 C86.4823973,74.6804205 85.6347045,76.3787723 86.159375,77.949125 C86.6840455,79.5194777 88.3823973,80.3671705 89.95275,79.8425 C91.0312733,80.9697896 92.4560006,81.7037587 94,81.9275 L94,86 C93.9995619,92.1966308 89.2820858,97.3743617 83.11225,97.95 C81.2284337,96.8310707 79.1064922,96.1739876 76.92,96.0325 C76.5368836,96.0078454 76.154826,96.0946767 75.82,96.2825 C74.9464399,95.7576416 74.1427351,95.1244553 73.428,94.398 C71.2241205,92.1592427 69.9923032,89.141506 69.9999641,86 L69.9999641,74.82825 Z M77.46025,106.16525 L74,107.35 L74,99.85425 C74.5098335,100.149779 75.0356381,100.416855 75.575,100.65425 L77.46025,106.16525 Z M66.094,111.3535 C66.08725,111.30175 66.08225,111.24975 66.076,111.19775 C65.7446312,108.538589 66.5053961,105.858683 68.1845,103.77025 L70.53775,110.6475 C70.8953694,111.692548 72.0324404,112.249834 73.0775,111.89225 L80.6475,109.30225 C81.6924158,108.944628 82.2496707,107.807735 81.89225,106.76275 L79.84225,100.768 C83.3552597,102.22899 85.7344951,105.557357 85.9799241,109.354131 C86.225353,113.150905 84.2944284,116.757886 80.99875,118.659 C80.3807539,119.016395 80.0001173,119.676102 80,120.39 L80,128 L72,128 L72,120.39 C72.0000376,119.676256 71.6197074,119.016586 71.002,118.659 C70.815,118.551 69.38975,117.49625 69.38,117.48775 C67.5895764,115.899196 66.4244405,113.724139 66.094,111.3535 Z M62,156 C62.0006684,156.669277 62.0492089,157.337649 62.14525,158 L58,158 C55.7919461,157.997383 54.0026174,156.208054 54,154 L54,150 L63.36625,150 C62.4698942,151.873368 62.0031225,153.923235 62,156 Z M54,146 L54,136 L64,136 L64,142 C64.0024479,143.636168 65.0001466,145.106237 66.51975,145.71275 C66.41775,145.807083 66.31725,145.902833 66.21825,146 L54,146 Z M77.5305,166 L74.94025,158.81825 L78.70425,157.462 L81.7585,165.93325 C81.76675,165.95625 81.77825,165.9775 81.78725,166 L77.5305,166 Z M81.789,154.225 C81.4144184,153.186003 80.2685507,152.647318 79.2295,153.02175 L71.702,155.7345 C70.6637663,156.109596 70.1257757,157.254952 70.5,158.2935 L73.12775,165.57925 C69.3056974,164.432067 66.5315503,161.122373 66.0697274,157.158684 C65.6079046,153.194994 67.546823,149.336165 71.00275,147.341 C71.4989058,147.052007 71.8466631,146.563434 71.95725,146 L80.04275,146 C80.1535107,146.56357 80.5015584,147.052167 80.998,147.341 C83.3731628,148.711382 85.0813802,150.996986 85.7229558,153.663018 C86.3645314,156.329049 85.8831691,159.141572 84.3915,161.4425 L81.789,154.225 Z M88,166 L85.79125,166 C86.6429295,165.168254 87.3851566,164.231376 88,163.212 L88,166 Z M89.85,154 C89.497024,151.582979 88.5203579,149.29964 87.01625,147.375 L100.78025,150.96575 L91.675,154 L89.85,154 Z M128,166 L92,166 L92,158 C92.215,158 107.875,152.817 107.875,152.817 L127.4945,157.93525 C127.659552,157.978288 127.829429,158.000047 128,158 L128,166 Z M82,142 L68,142 L68,132 L82,132 C83.1045695,132 84,131.104569 84,130 L84,127.236 L84.50925,127.49075 L86.21125,130.8945 C86.5048047,131.481415 87.0676062,131.88698 87.71725,131.97975 L142,139.7345 L142,150 C141.997383,152.208054 140.208054,153.997383 138,154 L128.2565,154 C128.2565,154 82.1705,142 82,142 Z M132,166 L132,158 L138,158 C140.856814,157.998238 143.496058,156.473765 144.925,154 L154.43975,154 L155.43975,158 L146,158 L146,162 L156.4385,162 L157.4385,166 L132,166 Z M166,128 L166,130 L161.95675,130 C161.93525,129.725 161.90675,129.45275 161.86925,129.18325 L161.86925,129.17925 L161.86925,129.175 C161.86775,129.16525 161.86575,129.15525 161.86425,129.1455 C161.811,128.7605 161.73925,128.3785 161.654,128 L166,128 Z M156.19775,134 L166,134 L166,137.56025 L152.198,134.8 L156.19775,134 Z M166,141.6395 L166,146 C165.997383,148.208054 164.208054,149.997383 162,150 L154.3,150 L146,147.4455 L146,137.6395 L166,141.6395 Z M143.9835,111.56075 C142.545593,109.398091 140.446564,107.758702 138,106.8875 L138,99.49125 C141.317586,100.347763 144.822355,100.118376 148,98.83675 L148,103.528 L143.9835,111.56075 Z M150.44275,118.33225 L146.53525,115.4015 L150.8945,106.68325 L151.84,107.156 L150.44275,118.33225 Z M75,80 C73.3431458,80 72,78.6568542 72,77 C72,75.3431458 73.3431458,74 75,74 C76.6568542,74 78,75.3431458 78,77 C77.9982088,78.6561117 76.6561117,79.9982088 75,80 L75,80 Z M78,86 L79.22225,86 C81.2494648,85.9818078 83.230741,85.3941213 84.94,84.304 L87.06,87.696 C84.7151666,89.1837893 81.9991985,89.9821805 79.22225,90 L78,90 L78,86 Z M106,84 L107.52775,84 C110.157908,83.9969318 112.751609,83.384681 115.1055,82.21125 L116.8945,85.78875 C113.984886,87.2392272 110.778861,87.9960878 107.52775,88 L106,88 L106,84 Z M103,72 C104.656854,72 106,73.3431458 106,75 C106,76.6568542 104.656854,78 103,78 C101.343146,78 100,76.6568542 100,75 C100.001791,73.3438883 101.343888,72.0017912 103,72 L103,72 Z M114,75 C114,73.3431458 115.343146,72 117,72 C118.656854,72 120,73.3431458 120,75 C120,76.6568542 118.656854,78 117,78 C115.343888,77.9982088 114.001791,76.6561117 114,75 L114,75 Z M146,79 C146,77.3431458 147.343146,76 149,76 C150.656854,76 152,77.3431458 152,79 C152,80.6568542 150.656854,82 149,82 C147.343888,81.9982088 146.001791,80.6561117 146,79 L146,79 Z" id="Shape" fill="#101418" fill-rule="nonzero"></path>
        </g>
    </g>
</svg>