<?xml version="1.0" encoding="UTF-8"?>
<svg width="18px" height="18px" viewBox="0 0 18 18" version="1.1" xmlns="http://www.w3.org/2000/svg" xmlns:xlink="http://www.w3.org/1999/xlink">
    <title>facebook</title>
    <g id="Desktop-v3" stroke="none" stroke-width="1" fill="none" fill-rule="evenodd">
        <path d="M18,9.02255639 C18,4.04210526 13.968,0 9,0 C4.032,0 0,4.04210526 0,9.02255639 C0,13.3894737 3.096,17.0255639 7.2,17.8646617 L7.2,11.7293233 L5.4,11.7293233 L5.4,9.02255639 L7.2,9.02255639 L7.2,6.76691729 C7.2,5.02556391 8.613,3.60902256 10.35,3.60902256 L12.6,3.60902256 L12.6,6.31578947 L10.8,6.31578947 C10.305,6.31578947 9.9,6.72180451 9.9,7.21804511 L9.9,9.02255639 L12.6,9.02255639 L12.6,11.7293233 L9.9,11.7293233 L9.9,18 C14.445,17.5488722 18,13.7052632 18,9.02255639 Z" id="facebook" fill="#FFFFFF" fill-rule="nonzero"></path>
    </g>
</svg>