<?xml version="1.0" encoding="UTF-8"?>
<svg width="18px" height="18px" viewBox="0 0 18 18" version="1.1" xmlns="http://www.w3.org/2000/svg" xmlns:xlink="http://www.w3.org/1999/xlink">
    <title>facebook</title>
    <g id="Desktop-v3" stroke="none" stroke-width="1" fill="none" fill-rule="evenodd">
        <g id="Programa-v3" transform="translate(-1224.000000, -2545.000000)" fill="#52CEFB" fill-rule="nonzero">
            <g id="Group-10" transform="translate(0.000000, 2532.000000)">
                <path d="M1242,22.0225564 C1242,17.0421053 1237.968,13 1233,13 C1228.032,13 1224,17.0421053 1224,22.0225564 C1224,26.3894737 1227.096,30.0255639 1231.2,30.8646617 L1231.2,24.7293233 L1229.4,24.7293233 L1229.4,22.0225564 L1231.2,22.0225564 L1231.2,19.7669173 C1231.2,18.0255639 1232.613,16.6090226 1234.35,16.6090226 L1236.6,16.6090226 L1236.6,19.3157895 L1234.8,19.3157895 C1234.305,19.3157895 1233.9,19.7218045 1233.9,20.2180451 L1233.9,22.0225564 L1236.6,22.0225564 L1236.6,24.7293233 L1233.9,24.7293233 L1233.9,31 C1238.445,30.5488722 1242,26.7052632 1242,22.0225564 Z" id="facebook"></path>
            </g>
        </g>
    </g>
</svg>