<?xml version="1.0" encoding="UTF-8"?>
<svg width="120px" height="120px" viewBox="0 0 120 120" version="1.1" xmlns="http://www.w3.org/2000/svg" xmlns:xlink="http://www.w3.org/1999/xlink">
    <title>Icon Copy</title>
    <g id="Logo" stroke="none" stroke-width="1" fill="none" fill-rule="evenodd">
        <g id="Icon-Copy" transform="translate(0.000000, 0.000000)">
            <path d="M119.783667,59.8916667 C119.783667,92.969 92.9693333,119.783667 59.892,119.783667 C26.8146667,119.783667 0,92.969 0,59.8916667 C0,26.8143333 26.8146667,1.89478063e-14 59.892,1.89478063e-14 C92.9693333,1.89478063e-14 119.783667,26.8143333 119.783667,59.8916667" id="Fill-1-Copy" fill="#EB4BBB"></path>
            <path d="M87.5564034,75.4922426 C89.3540037,78.0901117 87.7130547,79.6561118 85.8669043,80.9290065 L85.5888469,81.1178347 C85.5423823,81.1489705 85.4958904,81.1799462 85.4494218,81.2107733 L85.1712943,81.3940455 L85.1712943,81.3940455 C77.5726004,86.3746326 69.2608204,89.0443524 60.4424211,88.9991948 C50.8763255,89.0527819 42.3962691,86.4312301 34.7020993,81.2700126 C32.8158522,80.0049964 30.522042,78.5485119 32.3163935,75.7415128 C33.9521753,73.1814558 35.7623096,73.9236949 37.6675533,75.0756684 L37.9614074,75.2557376 L37.9614074,75.2557376 L38.2566981,75.4399314 L38.2566981,75.4399314 L38.5533613,75.6259092 L38.5533613,75.6259092 C52.9069801,84.6092698 67.3083368,84.5502638 81.624362,75.5289708 C83.7123021,74.2127761 85.757278,72.8917645 87.5564034,75.4922426 Z M79.3687764,31.0009048 C81.9746627,31.0595502 84.582936,31.0290306 87.1900158,31.0158653 C87.8332825,31.0122748 88.3237882,31.0457865 88.3142407,31.9320512 C88.231893,39.6912061 88.5415919,47.4760932 88.0307976,55.205327 C87.2049339,67.6926234 77.2331072,70.8505025 68.992372,69.2868228 C65.2849362,68.5836755 63.6624482,67.4490652 60.0457143,63.5299918 C59.9180157,63.6161647 59.7449662,63.680196 59.6482972,63.8052665 C55.5840215,69.0677999 50.1216254,70.3861261 43.9586773,69.3299092 C37.0921935,68.1522124 32.4854972,63.107505 31.9955882,55.9330096 C31.6232335,50.4777839 31.7503353,44.9860544 31.6835024,39.5104823 C31.6494893,36.7391846 31.6775352,33.9672884 31.6775352,31.1098178 L41.7525949,31.1098178 C41.7806408,31.6753277 41.829572,32.2073259 41.8301688,32.7393241 C41.8349425,38.9497598 41.8301688,45.1595971 41.8373294,51.3700328 C41.8385229,52.2365496 41.8367327,53.109649 41.9339984,53.9689847 C42.4841764,58.8347636 46.507875,61.304456 51.0554958,59.590572 C52.9357678,58.8826374 54.1089239,57.4799335 54.5463214,55.547625 C54.8452792,54.2263067 54.9813319,52.840957 54.9914762,51.481938 C55.0368271,45.2726991 55.0111681,39.0622634 55.0111681,32.8518276 L55.0111681,31.1241799 L65.0438604,31.1241799 C65.0647457,31.6208712 65.1035326,32.1043971 65.1035326,32.587923 C65.1077097,39.0718381 65.1023392,45.5563517 65.1130802,52.0402668 C65.1148704,52.8134295 65.1262081,53.600356 65.2598739,54.3567629 C66.0773835,58.9676135 69.6314616,61.1063779 74.0484002,59.6803355 C76.3791976,58.9281176 77.953351,56.8426128 78.0464397,53.9115361 C78.1842826,49.5783539 78.1448989,45.238589 78.1657842,40.9012178 C78.1801055,38.0245976 78.1974105,35.1473789 78.153253,32.2713572 C78.1389317,31.3408091 78.3991026,30.9793615 79.3687764,31.0009048 Z" id="Combined-Shape-Copy-2" fill="#FFFFFF"></path>
        </g>
    </g>
</svg>