<?xml version="1.0" encoding="UTF-8"?>
<svg width="220px" height="220px" viewBox="0 0 220 220" version="1.1" xmlns="http://www.w3.org/2000/svg" xmlns:xlink="http://www.w3.org/1999/xlink">
    <title>inclusive</title>
    <g id="Desktop-v3" stroke="none" stroke-width="1" fill="none" fill-rule="evenodd">
        <g id="inclusive">
            <g id="interactive-copy-2" fill="#41EDC7">
                <circle id="Oval" cx="110" cy="110" r="110"></circle>
            </g>
            <path d="M107.52775,90 L106,90 L106,86 L107.52775,86 C110.157908,85.9969318 112.751609,85.384681 115.1055,84.21125 L116.8945,87.78875 C113.984877,89.2392014 110.778857,89.9960606 107.52775,90 L107.52775,90 Z M170,74 L170,100 C170,101.104569 169.104569,102 168,102 C162.307077,101.993277 157.183446,98.5446582 155.03425,93.273 C154.176286,94.4799007 153.15515,95.5620342 152,96.4885 L152,102.7635 L154.72825,104.1275 L162.747,106.419 C167.032419,107.657144 169.987004,111.574322 170,116.035 L170,118 L166,118 L166,116.035 C165.992397,113.359185 164.220484,111.00916 161.65,110.26575 L155.696,108.56575 L153.9855,122.24925 C153.896899,122.95681 153.438271,123.563675 152.781768,123.842053 C152.125264,124.120431 151.370202,124.028207 150.8,123.6 L146,120 L146,131.9605 L155.60775,130.03875 C155.736911,130.012991 155.868295,130.000012 156,130 L157.93925,130 C157.819873,128.909463 157.519947,127.846375 157.05175,126.85425 C156.642886,125.993572 156.119014,125.192416 155.4945,124.47275 L154.48725,123.30825 L157.51225,120.69175 L158.51975,121.85675 C159.096175,122.523535 159.61142,123.240845 160.05925,124 L166,124 L166,122 L170,122 L170,146 C169.99504,150.416222 166.416222,153.99504 162,154 L158.5615,154 L161.94025,167.515 C162.089593,168.112466 161.955355,168.745419 161.576352,169.230833 C161.197349,169.716246 160.615848,170 160,170 L66,170 C64.8954305,170 64,169.104569 64,168 L64,162 L58,162 C53.5837781,161.99504 50.0049599,158.416222 50,154 L50,120.4175 L54,120.4175 L54,132 L68,132 C68.1200594,131.999983 68.2398765,132.010776 68.358,132.03225 L74,133.05725 L74,122.8285 L71.41425,125.41425 C70.8786104,125.949992 70.0862446,126.137103 69.3675294,125.897566 C68.6488141,125.65803 68.1271327,125.032968 68.02,124.283 L66.339,112.5155 L58.7825,114.5405 C58.755,114.54775 58.72725,114.5545 58.6995,114.56075 C57.1817472,114.895502 55.8539624,115.80804 54.9975,117.105 L51.6635,114.895 C53.0813756,112.746962 55.2756821,111.231141 57.7865,110.66525 L67.2865,108.1205 L70,106.764 L70,98.58175 C67.8579369,96.1639579 66.5046734,93.1500772 66.121,89.94275 C63.0364073,89.5530226 60.5788211,87.1748946 60.0879624,84.1047713 C59.5971037,81.034648 61.1906906,78.0088086 64,76.67675 L64,72 C64.0019023,65.5696616 67.4329897,59.6284314 73.001619,56.412903 C78.5702483,53.1973747 85.4310482,53.1956964 91.00125,56.4085 L89,59.871 C84.6676664,57.3697257 79.3299073,57.3701681 74.9979885,59.8721607 C70.6660696,62.3741533 67.9983403,66.9974521 68,72 L68,76 C74.8286986,76.0003378 81.2056952,72.587621 84.9935,66.90575 L86.33575,64.891 C86.7066191,64.3344062 87.3311648,64.0000393 88,64 L88,64 C88.6685159,64.0000393 89.2928072,64.3340891 89.66375,64.89025 L92.1455,68.611 C92.7355402,68.3459246 93.3597522,68.1646692 94,68.0725 L94,62 C94,61.0773327 94.127362,60.1590814 94.3785,59.27125 C93.6449257,57.1326899 93.9894118,54.7714963 95.3034126,52.9316668 C96.6174135,51.0918374 98.7391217,50 101,50 L111.1725,50 C113.231434,50 115.22553,50.7201114 116.8095,52.0355 C121.997749,52.4623992 125.993094,56.7942226 126,62 L126,68.0725 C127.819275,68.3366505 129.46171,69.3056248 130.57275,70.77025 C131.416621,70.3692922 132.324627,70.1203926 133.255,70.035 L142,63.03875 L142,58 L140,58 C136.58972,57.9983804 133.296408,59.2431189 130.73975,61.5 L128.09275,58.5 C131.380289,55.5981737 135.614968,53.9977995 140,54 L144,54 C148.865056,53.990558 153.467658,56.2050741 156.49625,60.0125 C164.025628,60.28708 169.990489,66.4656231 170,74 Z M66,80.1715 C64.8012541,80.5952224 63.9997939,81.7285708 63.9997939,83 C63.9997939,84.2714292 64.8012541,85.4047776 66,85.8285 L66,80.1715 Z M138.20425,71.198 C139.327185,71.8947985 140.261537,72.8570526 140.925,74 L143.0775,74 C144.205605,72.0521953 146.099879,70.6677055 148.29825,70.18425 L143.975,66.582 L138.20425,71.198 Z M130.31625,79.54625 C131.09235,81.3939738 133.116554,82.3815918 135.050541,81.8561313 C136.984528,81.3306708 138.23065,79.4545115 137.965021,77.4680936 C137.699393,75.4816758 136.004099,73.9988498 134,73.9999993 C133.290952,74.0000839 132.594855,74.1899913 131.984,74.55 C131.9935,74.7 132,74.84875 132,74.9999993 C132.000951,76.6680932 131.403524,78.2811921 130.31625,79.54625 L130.31625,79.54625 Z M126,77.8285 C127.198746,77.4047776 128.000206,76.2714292 128.000206,75 C128.000206,73.7285708 127.198746,72.5952224 126,72.1715 L126,77.8285 Z M122,96.93475 L122,102.764 L124.65475,104.0915 L127.4445,104.6495 L132,102.764 L132,96.489 C128.209976,93.4509614 126.003106,88.8573601 126,84 L126,88 C126.000857,91.4121915 124.545674,94.6626158 122,96.93475 Z M142,128 L142,118.1975 C141.991193,114.386987 139.302758,111.1086 135.56775,110.35375 L123.60775,107.96125 C123.43275,107.92625 121.83725,107.15475 121.83725,107.15475 C120.879458,112.947711 115.870473,117.196845 109.998867,117.197279 C104.127261,117.197713 99.1176478,112.949319 98.159,107.1565 C98.159,107.1565 96.56675,107.92625 96.39225,107.96125 L84.43225,110.35375 C80.6972419,111.1086 78.0088073,114.386987 78,118.1975 L78,128 L88,128 L88,124 L92,124 L92,128 C92.1018602,128.000005 92.2035717,128.007778 92.30425,128.02325 L110.00425,130.74625 L127.69625,128.02325 C127.796762,128.007789 127.898306,128.000016 128,128 L128,124 L132,124 L132,128 L142,128 Z M128.153,132 L123.153,132.7695 L142,135.66875 L142,132 L128.153,132 Z M83.64775,106.43125 L90,105.16075 L90,101.86075 C85.048205,104.713728 78.951795,104.713728 74,101.86075 L74,107.334 L76.5845,110.779 C78.346426,108.535297 80.8509178,106.993669 83.64775,106.43125 L83.64775,106.43125 Z M105.00175,111.4405 C106.904832,112.964177 109.398971,113.536617 111.776002,112.995288 C114.153033,112.453958 116.15335,110.857979 117.209,108.6605 C117.731747,107.580156 118.002221,106.395168 118.000014,105.195 L118.000014,99.312 C116.715684,99.767865 115.362821,100.000558 114,100 L106,100 C104.637179,100.000558 103.284316,99.767865 101.999975,99.312 L101.999975,105.195 C101.993957,107.62608 103.099617,109.926539 105.00175,111.4405 L105.00175,111.4405 Z M118,61.1715 L122,65.1715 L122,62 C121.997029,59.4581553 120.395428,57.1929907 118,56.34275 L118,61.1715 Z M104.8285,64 L98.5185,70.31 L100.01025,72.7965 C100.097801,71.4866019 101.026015,70.3853774 102.302191,70.0773629 C103.578367,69.7693485 104.906706,70.3259371 105.582119,71.4516885 C106.257531,72.5774399 106.123466,74.0114214 105.251086,74.9924674 C104.378706,75.9735135 102.970216,76.274232 101.77325,75.735 L103.13225,78 L116.86775,78 L118.22675,75.735 C117.031055,76.2725774 115.624777,75.971501 114.753987,74.9915003 C113.883197,74.0114996 113.749595,72.5795727 114.424063,71.455397 C115.09853,70.3312213 116.424838,69.7751902 117.699343,70.0822939 C118.973849,70.3893976 119.901337,71.4885015 119.98975,72.7965 L121.4815,70.31 L115.1715,64 L104.8285,64 Z M98,57 C98,59.375 100.30525,60 101,60 L114,60 L114,54.91475 C113.17691,54.3205472 112.187662,54.0005068 111.1725,54 L101,54 C99.3438883,54.0017912 98.0017912,55.3438883 98,57 L98,57 Z M98,65.17175 L99.37,63.8015 C98.8979006,63.6881699 98.4387906,63.5263085 98,63.3185 L98,65.17175 Z M98,88 C98.0049599,92.4162219 101.583778,95.9950401 106,96 L114,96 C118.416222,95.9950401 121.99504,92.4162219 122,88 L122,77.2205 L119.715,81.029 C119.353549,81.6314119 118.702529,82.0000068 118,82 L102,82 C101.297471,82.0000068 100.646451,81.6314119 100.285,81.029 L98,77.2205 L98,88 Z M94,98.5815 L94,104.3605 L95.34525,104.0915 L98,102.764 L98,96.93475 C97.3850017,96.3836154 96.8280935,95.7709158 96.338,95.10625 C95.7146916,96.3623294 94.9285926,97.5308028 94,98.5815 L94,98.5815 Z M92,75 C92.0014638,76.2709002 92.8022821,77.4034574 94,77.8285 L94,72.1715 C92.8022821,72.5965426 92.0014638,73.7290998 92,75 L92,75 Z M70,88 C70,94.627417 75.372583,100 82,100 C88.627417,100 94,94.627417 94,88 L94,81.9275 C93.3004554,81.8272629 92.6202973,81.6208886 91.983,81.3155 C91.8175495,82.8820399 90.4686735,84.0538024 88.8943896,83.9985616 C87.3201058,83.9433209 86.0566791,82.6798942 86.0014384,81.1056104 C85.9461976,79.5313265 87.1179601,78.1824505 88.6845,78.017 C87.6426639,75.8408541 87.7981625,73.2810355 89.09575,71.247 L87.99575,69.59925 C85.7965735,72.7293998 82.8957192,75.3017537 79.525,77.11075 C78.5689585,77.6208151 77.5799252,78.0664731 76.5645,78.44475 C77.9573111,79.2956172 78.4143543,81.1038523 77.5931141,82.5143353 C76.7718739,83.9248183 74.9737023,84.4199763 73.5461775,83.62873 C72.1186527,82.8374837 71.5856011,81.0501789 72.3465,79.60625 C71.5703333,79.7469167 70.7884167,79.8496667 70.00075,79.9145 L70,88 Z M74.05,117.12275 C74.1238004,116.300867 74.2829923,115.488904 74.525,114.7 L71.4,110.5355 L70.18225,111.1445 L71.4125,119.7575 L74.05,117.12275 Z M54,146 L68,146 C68.2708314,145.999976 68.5388412,146.055007 68.78775,146.16175 L74,148.39575 L74,137.125 L67.8195,136 L54,136 L54,146 Z M67.58925,158 L75.475,154.61975 C75.1168271,154.115534 74.8183334,153.571484 74.5855,152.9985 L67.58925,150 L54,150 L54,154 C54.0026174,156.208054 55.7919461,157.997383 58,158 L67.58925,158 Z M88,158 L82,158 C80.9919893,158.000396 79.9930915,157.809169 79.0565,157.4365 L68.788,161.83825 C68.5389992,161.94498 68.2709107,162.000009 68,162 L68,166 L88,166 L88,158 Z M91.675,154 L103.675,150 L91.675,146 L78,146 L78,150 C78.0026174,152.208054 79.7919461,153.997383 82,154 L91.675,154 Z M128,158 C127.785015,157.999967 127.571441,157.965272 127.3675,157.89725 L110,152.10825 L92.6325,157.89725 C92.4285594,157.965272 92.2149855,157.999967 92,158 L92,166 L128,166 L128,158 Z M128.325,154 L138,154 C140.208054,153.997383 141.997383,152.208054 142,150 L142,139.71575 L91.84725,132 L78,132 L78,142 L92,142 C92.2149855,142.000033 92.4285594,142.034728 92.6325,142.10275 L128.325,154 Z M157.439,166 L156.439,162 L146,162 L146,158 L155.4385,158 L154.4385,154 L144.925,154 C143.496058,156.473765 140.856814,157.998238 138,158 L132,158 L132,166 L157.439,166 Z M161.65325,128 C161.803341,128.658348 161.905029,129.326801 161.9575,130 L166,130 L166,128 L161.65325,128 Z M152.19875,134.8 L166,137.56025 L166,134 L156.198,134 L152.19875,134.8 Z M146,137.6395 L146,147.4455 L154.3,150 L162,150 C164.208054,149.997383 165.997383,148.208054 166,146 L166,141.63975 L146,137.6395 Z M148,103.528 L148,98.8365 C144.150416,100.38784 139.849584,100.38784 136,98.8365 L136,103.528 L137.61475,106.759 C140.222128,107.588412 142.468692,109.28222 143.9835,111.56075 L148,103.528 Z M151.83975,107.156 L150.8945,106.68325 L146.5355,115.4015 L150.44275,118.33225 L151.83975,107.156 Z M153.95775,84.948 C151.482629,86.3614054 148.442169,86.3499897 145.977731,84.9180382 C143.513293,83.4860868 141.997741,80.8502519 142,78 C141.994262,80.8470359 140.478887,83.4774144 138.018824,84.9105008 C135.558761,86.3435871 132.523169,86.3643315 130.04375,84.965 C130.542539,91.2019479 135.751744,96.007759 142.008603,96.0033142 C148.265462,95.9988632 153.467829,91.1856508 153.95775,84.948 L153.95775,84.948 Z M154,78 C154,75.790861 152.209139,74 150,74 C147.790861,74 146,75.790861 146,78 C146,80.209139 147.790861,82 150,82 C152.208054,81.9973826 153.997383,80.2080539 154,78 L154,78 Z M156,70 C155.999531,64.1439672 151.773817,59.1428348 146,58.165 L146,63.06325 L156,71.3965 L156,70 Z M158,81.8285 C159.198746,81.4047776 160.000206,80.2714292 160.000206,79 C160.000206,77.7285708 159.198746,76.5952224 158,76.1715 L158,81.8285 L158,81.8285 Z M166,74 C165.994428,69.6407825 163.170356,65.7856214 159.01575,64.46575 C159.668488,66.2377903 160.001733,68.111564 160,70 L160,72.67675 C162.788222,73.9997071 164.380795,76.9928236 163.920177,80.0444182 C163.459558,83.0960127 161.054486,85.4857111 158,85.92675 L158,88 C158.0059,92.7502361 161.347113,96.8432223 166,97.8 L166,74 Z M142,88 C140.895945,87.99876 140.00124,87.1040555 140,86 L136,86 C136,89.3137085 138.686292,92 142,92 C145.313708,92 148,89.3137085 148,86 L144,86 C143.99876,87.1040555 143.104055,87.99876 142,88 Z M87.06,89.696 L84.94,86.304 C83.2308185,87.3940888 81.2496316,87.9817745 79.2225,88 L78,88 L78,92 L79.2225,92 C81.9993654,91.9821472 84.7152442,91.1837567 87.06,89.696 L87.06,89.696 Z M110,121.19375 C106.367582,121.189115 102.844044,119.953088 100.00475,117.6875 L97.50475,120.811 C104.402205,126.329465 114.103215,126.668892 121.3695,121.646 L119.1,118.354 C116.420892,120.193408 113.249758,121.182994 110,121.19375 Z" id="Shape" fill="#101418" fill-rule="nonzero"></path>
        </g>
    </g>
</svg>