<?xml version="1.0" encoding="UTF-8"?>
<svg width="18px" height="18px" viewBox="0 0 18 18" version="1.1" xmlns="http://www.w3.org/2000/svg" xmlns:xlink="http://www.w3.org/1999/xlink">
    <title>instagram</title>
    <g id="Desktop-v3" stroke="none" stroke-width="1" fill="none" fill-rule="evenodd">
        <path d="M9.004,4.4 C6.46,4.4 4.408,6.452 4.408,8.996 C4.408,11.54 6.46,13.592 9.004,13.592 C11.548,13.592 13.6,11.54 13.6,8.996 C13.6,6.452 11.548,4.4 9.004,4.4 Z M9.004,11.984 C7.36,11.984 6.016,10.644 6.016,8.996 C6.016,7.348 7.356,6.008 9.004,6.008 C10.652,6.008 11.992,7.348 11.992,8.996 C11.992,10.644 10.648,11.984 9.004,11.984 L9.004,11.984 Z M14.86,4.212 C14.86,4.808 14.38,5.284 13.788,5.284 C13.192,5.284 12.716,4.804 12.716,4.212 C12.716,3.62 13.196,3.14 13.788,3.14 C14.38,3.14 14.86,3.62 14.86,4.212 Z M17.904,5.3 C17.836,3.864 17.508,2.592 16.456,1.544 C15.408,0.496 14.136,0.168 12.7,0.096 C11.22,0.012 6.784,0.012 5.304,0.096 C3.872,0.164 2.6,0.492 1.548,1.54 C0.496,2.588 0.172,3.86 0.1,5.296 C0.016,6.776 0.016,11.212 0.1,12.692 C0.168,14.128 0.496,15.4 1.548,16.448 C2.6,17.496 3.868,17.824 5.304,17.896 C6.784,17.98 11.22,17.98 12.7,17.896 C14.136,17.828 15.408,17.5 16.456,16.448 C17.504,15.4 17.832,14.128 17.904,12.692 C17.988,11.212 17.988,6.78 17.904,5.3 Z M15.992,14.28 C15.68,15.064 15.076,15.668 14.288,15.984 C13.108,16.452 10.308,16.344 9.004,16.344 C7.7,16.344 4.896,16.448 3.72,15.984 C2.936,15.672 2.332,15.068 2.016,14.28 C1.548,13.1 1.656,10.3 1.656,8.996 C1.656,7.692 1.552,4.888 2.016,3.712 C2.328,2.928 2.932,2.324 3.72,2.008 C4.9,1.54 7.7,1.648 9.004,1.648 C10.308,1.648 13.112,1.544 14.288,2.008 C15.072,2.32 15.676,2.924 15.992,3.712 C16.46,4.892 16.352,7.692 16.352,8.996 C16.352,10.3 16.46,13.104 15.992,14.28 Z" id="instagram" fill="#FFFFFF" fill-rule="nonzero"></path>
    </g>
</svg>