<?xml version="1.0" encoding="UTF-8"?>
<svg width="18px" height="18px" viewBox="0 0 18 18" version="1.1" xmlns="http://www.w3.org/2000/svg" xmlns:xlink="http://www.w3.org/1999/xlink">
    <title>instagram</title>
    <g id="Desktop-v3" stroke="none" stroke-width="1" fill="none" fill-rule="evenodd">
        <g id="Programa-v3" transform="translate(-1260.000000, -2545.000000)" fill="#52CEFB" fill-rule="nonzero">
            <g id="Group-10" transform="translate(0.000000, 2532.000000)">
                <path d="M1269.004,17.4 C1266.46,17.4 1264.408,19.452 1264.408,21.996 C1264.408,24.54 1266.46,26.592 1269.004,26.592 C1271.548,26.592 1273.6,24.54 1273.6,21.996 C1273.6,19.452 1271.548,17.4 1269.004,17.4 Z M1269.004,24.984 C1267.36,24.984 1266.016,23.644 1266.016,21.996 C1266.016,20.348 1267.356,19.008 1269.004,19.008 C1270.652,19.008 1271.992,20.348 1271.992,21.996 C1271.992,23.644 1270.648,24.984 1269.004,24.984 L1269.004,24.984 Z M1274.86,17.212 C1274.86,17.808 1274.38,18.284 1273.788,18.284 C1273.192,18.284 1272.716,17.804 1272.716,17.212 C1272.716,16.62 1273.196,16.14 1273.788,16.14 C1274.38,16.14 1274.86,16.62 1274.86,17.212 Z M1277.904,18.3 C1277.836,16.864 1277.508,15.592 1276.456,14.544 C1275.408,13.496 1274.136,13.168 1272.7,13.096 C1271.22,13.012 1266.784,13.012 1265.304,13.096 C1263.872,13.164 1262.6,13.492 1261.548,14.54 C1260.496,15.588 1260.172,16.86 1260.1,18.296 C1260.016,19.776 1260.016,24.212 1260.1,25.692 C1260.168,27.128 1260.496,28.4 1261.548,29.448 C1262.6,30.496 1263.868,30.824 1265.304,30.896 C1266.784,30.98 1271.22,30.98 1272.7,30.896 C1274.136,30.828 1275.408,30.5 1276.456,29.448 C1277.504,28.4 1277.832,27.128 1277.904,25.692 C1277.988,24.212 1277.988,19.78 1277.904,18.3 Z M1275.992,27.28 C1275.68,28.064 1275.076,28.668 1274.288,28.984 C1273.108,29.452 1270.308,29.344 1269.004,29.344 C1267.7,29.344 1264.896,29.448 1263.72,28.984 C1262.936,28.672 1262.332,28.068 1262.016,27.28 C1261.548,26.1 1261.656,23.3 1261.656,21.996 C1261.656,20.692 1261.552,17.888 1262.016,16.712 C1262.328,15.928 1262.932,15.324 1263.72,15.008 C1264.9,14.54 1267.7,14.648 1269.004,14.648 C1270.308,14.648 1273.112,14.544 1274.288,15.008 C1275.072,15.32 1275.676,15.924 1275.992,16.712 C1276.46,17.892 1276.352,20.692 1276.352,21.996 C1276.352,23.3 1276.46,26.104 1275.992,27.28 Z" id="instagram"></path>
            </g>
        </g>
    </g>
</svg>