<?xml version="1.0" encoding="UTF-8"?>
<svg width="220px" height="220px" viewBox="0 0 220 220" version="1.1" xmlns="http://www.w3.org/2000/svg" xmlns:xlink="http://www.w3.org/1999/xlink">
    <title>interactive</title>
    <g id="Desktop-v3" stroke="none" stroke-width="1" fill="none" fill-rule="evenodd">
        <g id="interactive" transform="translate(0.000000, 0.000000)">
            <circle id="Oval" fill="#72F441" cx="110" cy="110" r="110"></circle>
            <path d="M170,68 L170,92 L166,92 L166,68 C165.99628,64.6878336 163.312166,62.0037199 160,62 L124,62 C120.687834,62.0037199 118.00372,64.6878336 118,68 L118,98 C118.00372,101.312166 120.687834,103.99628 124,104 L130,104 C130.599206,103.999972 131.166855,104.26861 131.546753,104.731994 C131.926651,105.195377 132.078769,105.804682 131.96125,106.39225 L130.87,111.84775 L142.94,104.304 C143.257831,104.105262 143.625149,103.999918 144,104 L160,104 C163.312166,103.99628 165.99628,101.312166 166,98 L166,96 L170,96 L170,98 C169.9938,103.520277 165.520277,107.9938 160,108 L144.5735,108 L144,108.3585 L144,115.2985 L156.05575,130.36825 C158.604386,133.562364 159.994816,137.526196 160,141.6125 L160,170 L156,170 L156,141.6125 C155.996006,138.434265 154.914555,135.351282 152.93225,132.867 L144,121.70175 L144,135.1715 L149.41425,140.58575 L146.58575,143.41425 L130.65675,127.48525 C128.676326,125.504895 125.46548,125.504951 123.485125,127.485375 C121.50477,129.465799 121.504826,132.676645 123.48525,134.657 L133.41425,144.58575 C134.062956,145.234884 134.186643,146.242209 133.71425,147.029 C130.465475,152.47755 130.627977,159.306155 134.13225,164.594 L135.66325,166.8905 C135.882593,167.218968 135.999768,167.605028 136,168 L136,170 L132,170 L132,168.6055 L130.80475,166.81275 C126.761722,160.709124 126.274691,152.914425 129.5265,146.355 L120.65675,137.48525 C118.365204,135.193659 117.470277,131.853617 118.30908,128.723284 C119.147883,125.592951 121.592981,123.147901 124.72333,122.309159 C127.853679,121.470417 131.193704,122.365409 133.48525,124.657 L140,131.17175 L140,110.8585 L129.06,117.696 C128.383093,118.119127 127.519398,118.099205 126.86272,117.645318 C126.206042,117.19143 125.88216,116.390514 126.03875,115.60775 L127.5605,108 L124,108 C118.479723,107.9938 114.0062,103.520277 114,98 L114,68 C114.0062,62.4797226 118.479723,58.0061999 124,58 L139.656,58 C138.8061,55.6048622 136.541457,54.0032757 134,54 L86,54 C82.6878906,54.0038574 80.0038574,56.6878906 80,60 L92,60 C97.5202774,60.0061999 101.9938,64.4797226 102,70 L102,90 C101.9938,95.5202774 97.5202774,99.9938001 92,100 L88.4395,100 L89.96125,107.60775 C90.1228033,108.412962 89.7756927,109.235094 89.0859559,109.680885 C88.3962191,110.126675 87.5040655,110.105505 86.83625,109.6275 L73.35925,100 L60,100 C54.4797226,99.9938001 50.0061999,95.5202774 50,90 L50,74 L54,74 L54,90 C54.0038574,93.3121094 56.6878906,95.9961426 60,96 L74,96 C74.4168504,95.9999854 74.823288,96.1302203 75.1625,96.3725 L85.047,103.43275 L84.03875,98.39225 C83.9212308,97.8046816 84.0733487,97.1953774 84.453247,96.7319935 C84.8331453,96.2686096 85.4007944,95.9999724 86,96 L92,96 C95.3121094,95.9961426 97.9961426,93.3121094 98,90 L98,70 C97.9961426,66.6878906 95.3121094,64.0038574 92,64 L60,64 C56.6878906,64.0038574 54.0038574,66.6878906 54,70 L50,70 C50.0061999,64.4797226 54.4797226,60.0061999 60,60 L76,60 C76.0061999,54.4797226 80.4797226,50.0061999 86,50 L134,50 C138.750339,50.0056106 142.843485,53.3469541 143.8,58 L160,58 C165.520277,58.0061999 169.9938,62.4797226 170,68 Z M64.69475,82.4075 C61.8284418,79.7344119 61.1658582,75.4460118 63.09175,72.0325 C64.2087519,70.0171623 66.1541324,68.5937488 68.413,68.139 C70.6014414,67.7193494 72.8637388,68.282547 74.6,69.67925 L76,70.79575 L77.4,69.67925 C79.1360464,68.2829 81.3978821,67.7197264 83.586,68.139 C85.8450071,68.5939197 87.7904131,70.017626 88.90725,72.03325 C90.8331418,75.4467618 90.1705582,79.7351619 87.30425,82.40825 L77.34575,91.47925 C76.5824904,92.1744471 75.4155096,92.1744471 74.65225,91.47925 L64.69475,82.4075 Z M67.38825,79.45 L76,87.29475 L84.61175,79.45 C86.0765,78.1155 86.42625,75.7725 85.42525,74 C84.8889036,73.0003899 83.9354435,72.291388 82.82375,72.0655 C81.7854309,71.8639542 80.7113196,72.1358962 79.894,72.80725 L77.2465,74.91725 C76.5171481,75.4985229 75.4828519,75.4985229 74.7535,74.91725 L72.106,72.80725 C71.4703347,72.2888059 70.6762662,72.0037354 69.856,71.9995 C69.6278221,71.9995 69.4001857,72.0217055 69.17625,72.0655 C68.0646494,72.291456 67.1112928,73.0004491 66.575,74 C65.575,75.773 65.9235,78.116 67.38825,79.45 Z M86,166 L126,166 L126,170 L86,170 C80.4797226,169.9938 76.0061999,165.520277 76,160 L72,160 C66.4797226,159.9938 62.0061999,155.520277 62,150 L62,128 C62.0061999,122.479723 66.4797226,118.0062 72,118 L76,118 L76,108 L80,108 L80,118 L85.35925,118 L98.8375,108.3725 C99.5053155,107.894495 100.397469,107.873325 101.087206,108.319115 C101.776943,108.764906 102.124053,109.587038 101.9625,110.39225 L100.4395,118 L102,118 C107.520277,118.0062 111.9938,122.479723 112,128 L112,150 C111.9938,155.520277 107.520277,159.9938 102,160 L80,160 C80.0038574,163.312109 82.6878906,165.996143 86,166 Z M102,156 C105.312109,155.996143 107.996143,153.312109 108,150 L108,128 C107.996143,124.687891 105.312109,122.003857 102,122 L98,122 C97.4007944,122.000028 96.8331453,121.73139 96.453247,121.268006 C96.0733487,120.804623 95.9212308,120.195318 96.03875,119.60775 L97.047,114.56725 L87.1625,121.6275 C86.823288,121.86978 86.4168504,122.000015 86,122 L72,122 C68.6878906,122.003857 66.0038574,124.687891 66,128 L66,150 C66.0038574,153.312109 68.6878906,155.996143 72,156 L102,156 Z M148,74.08325 L144,74.08325 L144,78.08325 L148,78.08325 L148,74.08325 Z M124.336,94.8905 L126.72925,91.3005 C123.85394,90.0092298 122.002998,87.1519484 121.999995,84 L121.999995,82 C121.999408,81.2127403 122.460717,80.4983668 123.1785,80.175 C122.406389,78.9194223 121.998378,77.4739835 121.999995,76 L121.999995,74 C121.999995,72.8954305 122.895431,72 123.999995,72 L135.17175,72 L138.1,69.071 C140.557174,66.6136092 144.072382,65.5335161 147.485471,66.187193 C150.89856,66.8408698 153.765934,69.1433586 155.14125,72.33475 L160.894,75.21125 C161.571453,75.5500755 161.999364,76.24254 161.999364,77 C161.999364,77.75746 161.571453,78.4499245 160.894,78.78875 L155.999995,81.236 L155.999995,82 C155.99008,90.8324438 148.832444,97.9900802 139.999995,98 L125.999995,98 C125.262394,98 124.584669,97.5939899 124.236649,96.943648 C123.888628,96.2933061 123.926813,95.5042008 124.336,94.8905 L124.336,94.8905 Z M130,88 C130.737606,88.0000126 131.415331,88.4060101 131.763351,89.056352 C132.111372,89.7066939 132.073187,90.4957992 131.664,91.1095 L129.737,94 L140,94 C146.624333,93.9925602 151.99256,88.6243329 152,82 L152,76.48525 C152,73.8621925 150.419896,71.4974246 147.996467,70.4937189 C145.573039,69.4900132 142.783615,70.0450514 140.929,71.9 L137.41425,75.4145 C137.039121,75.7894766 136.530404,76.0000856 136,76 L126,76 C126.002617,78.2080539 127.791946,79.9973826 130,80 C131.104569,80 132,80.8954305 132,82 C132,83.1045695 131.104569,84 130,84 L126,84 C126.002617,86.2080539 127.791946,87.9973826 130,88 Z M102,146 C101.99628,149.312166 99.3121664,151.99628 96,152 L74,152 C72.8954305,152 72,151.104569 72,150 L72,136 C72,134.895431 72.8954305,134 74,134 L82,134 L82,128 C82,126.895431 82.8954305,126 84,126 L88,126 C91.3121664,126.00372 93.9962801,128.687834 94,132 L94,134 L96,134 C99.3121664,134.00372 101.99628,136.687834 102,140 L102,146 Z M82,138 L76,138 L76,148 L82,148 L82,138 Z M98,140 C97.99876,138.895945 97.1040555,138.00124 96,138 L92,138 C90.8954305,138 90,137.104569 90,136 L90,132 C89.99876,130.895945 89.1040555,130.00124 88,130 L86,130 L86,148 L96,148 C97.1040555,147.99876 97.99876,147.104055 98,146 L98,140 Z" id="Shape" fill="#101418" fill-rule="nonzero"></path>
        </g>
    </g>
</svg>