<?xml version="1.0" encoding="UTF-8"?>
<svg width="220px" height="220px" viewBox="0 0 220 220" version="1.1" xmlns="http://www.w3.org/2000/svg" xmlns:xlink="http://www.w3.org/1999/xlink">
    <title>kind</title>
    <g id="Desktop-v3" stroke="none" stroke-width="1" fill="none" fill-rule="evenodd">
        <g id="kind" transform="translate(0.000000, 0.000000)">
            <g id="interactive-copy" fill="#41EDC7">
                <circle id="Oval" cx="110" cy="110" r="110"></circle>
            </g>
            <g id="email-marketing-marketing-business-digital-strategy" transform="translate(50.000000, 49.000000)" fill="#101418" fill-rule="nonzero">
                <path d="M4,66 L0,66 L0,62 C0.00495988455,57.5837781 3.58377808,54.0049599 8,54 L26,54 L26,58 L8,58 C5.79194607,58.0026174 4.0026174,59.7919461 4,62 L4,66 Z M32,62 L40,62 L40,66 L32,66 L32,62 Z M20,62 L28,62 L28,66 L20,66 L20,62 Z M64,66 L56,66 L56,62 L64,62 L64,66 Z M8,62 L16,62 L16,66 L8,66 L8,62 Z M52,62 L52,66 L44,66 L44,62 L52,62 Z M23.6,8.8 L20.4,11.2 L14.4,3.2 L17.6,0.8 L23.6,8.8 Z M55.6,3.2 L49.6,11.2 L46.4,8.8 L52.4,0.8 L55.6,3.2 Z M38,0 L38,10 L34,10 L34,0 L38,0 Z M92,38 C89.790861,38 88,36.209139 88,34 C88,31.790861 89.790861,30 92,30 C94.209139,30 96,31.790861 96,34 C95.9973826,36.2080539 94.2080539,37.9973826 92,38 Z M8,104 L21.38325,104 L18.0445,119.581 C17.9179717,120.171551 18.0650817,120.787653 18.4447669,121.257333 C18.8244522,121.727012 19.3960464,122 20,122 L76,122 C77.1045695,122 78,121.104569 78,120 L78,112 C78,110.895431 77.1045695,110 76,110 L64.27075,110 L65.60425,104 L73.33325,104 L78.20475,107.655 C78.225,107.67025 78.24575,107.685 78.26675,107.6995 L80.79975,109.5995 C81.1956581,109.896865 81.6879097,110.036566 82.181,109.9915 L104.181,107.9915 C105.211077,107.897894 105.999849,107.034322 106,106 L106,88 L116,88 L116,112 C116.001794,113.591848 115.370229,115.119014 114.244622,116.244622 C113.119014,117.370229 111.591848,118.001794 110,118 L82,118 L82,122 L110,122 C112.652734,122.001859 115.197354,120.948887 117.073121,119.073121 C118.948887,117.197354 120.001859,114.652734 120,112 C120,112 120,74.92875 119.99825,74.893 C119.981,68.6525 119.80175,38.81075 117.96125,29.60775 C117.809419,28.8486387 117.610281,28.0997615 117.365,27.3655 L113.5715,28.6345 C113.763856,29.2100687 113.919912,29.7971385 114.03875,30.39225 C115.699,38.69225 115.95375,65.962 115.993,73.8485 C109.527363,72.8359256 104.793133,67.2187254 104.89025,60.675 C105.02,50.775 106.3465,40.761 107.59025,35.985 C107.810899,35.1373995 107.45438,34.2448361 106.7105,33.7825 C100.721432,30.1011453 95.4588434,25.3518935 91.18425,19.77075 C93.1144452,18.6138755 95.3221649,18.0019208 97.5725,18 C103.37725,18 108.8405,20.73 111.8305,25.125 L115.13775,22.875 C111.41325,17.4 104.68275,14 97.5725,14 C93.7481017,14.0035037 90.0443138,15.338812 87.0975,17.7765 L87.0975,17.7765 C84.2905675,20.1075983 82.3352402,23.3031487 81.53725,26.8635 L80.22175,32.7815 L74.89025,36.336 C74.3339397,36.7069464 73.9998013,37.3313579 73.9998013,38 C73.9998013,38.6686421 74.3339397,39.2930536 74.89025,39.664 L80,43.07025 L80,52 C80.0038574,55.3121094 82.6878906,57.9961426 86,58 L92,58 L92,66 L87,66 C82.0317218,66.0055111 78.0055111,70.0317218 78,75 L78,82.975 C77.1493346,85.4170768 77.0764059,88.0627699 77.79125,90.548 C77.79125,90.548 77.9605,91.13075 78,91.25275 L78,102.50275 L75.2,100.40275 C74.8541522,100.142124 74.4330543,100.000793 74,100 L70.925,100 C71.6305499,98.7851058 72.0014781,97.4049079 72,96 L72,62 C71.9950401,57.5837781 68.4162219,54.0049599 64,54 L42,54 L42,58 L64,58 C66.2080539,58.0026174 67.9973826,59.7919461 68,62 L68,96 C67.9973826,98.2080539 66.2080539,99.9973826 64,100 L42,100 L42,92 C42,90.8954305 41.1045695,90 40,90 L26,90 C25.0569461,90.0000553 24.2420698,90.6588737 24.0445,91.581 L22.24025,100 L8,100 C5.79194607,99.9973826 4.0026174,98.2080539 4,96 L4,70 L0,70 L0,96 C0.00495988455,100.416222 3.58377808,103.99504 8,104 Z M106,75 C106.001202,74.4372868 106.097561,73.878829 106.285,73.34825 C108.946802,75.8716021 112.356173,77.4621446 116,77.8805 L116,84 L106,84 L106,75 Z M82.585,105.9385 L82,105.5 L82,97.1325 C83.7679799,98.5852121 85.8977091,99.5298284 88.16125,99.86525 L88.66125,105.3865 L82.585,105.9385 Z M86,54 C84.8959445,53.99876 84.00124,53.1040555 84,52 L84,47.98375 C87.3274062,47.8263948 90.3083697,45.8786023 91.78875,42.8945 L88.21125,41.1055 C87.4045906,42.7317316 85.8085313,43.8198376 84,43.9765 L84,42 C83.9999886,41.3313481 83.6658298,40.7069346 83.1095,40.336 L79.6055,38 L83.1095,35.664 C83.5384038,35.3778502 83.8403715,34.9372568 83.9525,34.434 L85.44225,27.73225 C85.8874033,25.7486031 86.8099245,23.9035608 88.12975,22.35725 C92.3763016,27.8727569 97.5328915,32.6231842 103.3775,36.404 C102.18225,41.7975 101.013,51.2935 100.8905,60.62375 C100.865737,62.445933 101.129931,64.2605262 101.67325,66 L96,66 L96,56 C96,54.8954305 95.1045695,54 94,54 L86,54 Z M82,75 C82.0031687,72.2398898 84.2398898,70.0031687 87,70 L89.1715,70 L82,77.17175 L82,75 Z M81.87,84.02925 C82.2993129,82.8922448 82.9665304,81.8600522 83.827,81.00175 L94.82825,70 L103.51675,70 C102.524468,71.4784058 101.996317,73.2194684 102,75 L102,104.175 L92.64575,105.025 L91.99175,97.82025 C91.8987424,96.7895826 91.0348554,96.0000808 90,96 C86.3451818,95.996653 83.090389,93.6871621 81.88025,90.2385 C81.828,90.09375 81.6385,89.45125 81.6385,89.45125 C81.1245228,87.6667678 81.2057886,85.7634278 81.87,84.02925 Z M74,114 L74,118 L50,118 L50,114 L74,114 Z M61.50675,104 L61.12725,105.70775 L58.585,105.9385 L56,104 L61.50675,104 Z M42,104 L49.33325,104 L56.8,109.6 C57.1461923,109.859644 57.5672596,110 58,110 L42,110 L42,104 Z M27.617,94 L38,94 L38,112 C38,113.104569 38.8954305,114 40,114 L46,114 L46,118 L22.475,118 L27.617,94 Z" id="Shape"></path>
            </g>
            <path d="M67.0497581,86.6075538 C62.7512517,82.5975077 61.7575971,76.1642434 64.6457927,71.043447 C66.320923,68.0201284 69.2383451,65.8847877 72.6258931,65.202594 C75.9078254,64.5730532 79.300517,65.4179368 81.9043299,67.5132076 L84.003863,69.1881305 L86.1033961,67.5132076 C88.7068868,65.4184664 92.098886,64.5736186 95.3803332,65.202594 C98.7680905,65.885044 101.685551,68.0208239 103.360434,71.0445721 C106.248629,76.1653685 105.254975,82.5986328 100.956468,86.6086789 L86.0220392,100.216584 C84.8774043,101.259487 83.1273224,101.259487 81.9826875,100.216584 L67.0497581,86.6075538 Z" id="Path" stroke="#101418" stroke-width="4"></path>
        </g>
    </g>
</svg>