<?xml version="1.0" encoding="UTF-8"?>
<svg width="110px" height="36px" viewBox="0 0 110 36" version="1.1" xmlns="http://www.w3.org/2000/svg" xmlns:xlink="http://www.w3.org/1999/xlink">
    <title>Group@1x</title>
    <g id="Desktop-v3" stroke="none" stroke-width="1" fill="none" fill-rule="evenodd">
        <g id="Home-v3" transform="translate(-80.000000, -12.000000)">
            <g id="Group" transform="translate(80.000000, 12.000000)">
                <path d="M61.386993,15.4545723 C61.386993,16.846879 61.387285,18.3460616 61.386993,19.8455363 C61.386993,20.9551767 61.4112299,22.0659852 61.3648002,23.1741656 C61.3557478,23.3928815 61.0797978,23.7786276 60.9139357,23.7850518 C59.6486536,23.8364457 58.3807434,23.8133768 57.0628994,23.8133768 C57.0395386,23.5053056 57.0077094,23.2763693 57.0077094,23.0471409 C57.0047893,18.4228604 57.0042053,13.7982879 57.0077094,9.17371542 C57.0091695,6.66037984 57.7321878,4.42591442 59.6524498,2.69983953 C62.3325234,0.291335771 67.0394429,-0.0742615503 70.3140503,1.84162026 C73.3608893,3.62463723 74.8749644,7.44618047 74.0328058,11.2303464 C73.0592423,15.6058338 68.7354407,18.3510258 64.5208512,17.1385976 C63.4252272,16.8235182 62.4627602,16.0473539 61.386993,15.4545723 M69.776173,9.00376522 C69.7720785,6.45159223 68.0646923,4.68755596 65.5936983,4.68316649 C63.1224122,4.67850363 61.4121059,6.43348757 61.3951693,8.99150078 C61.3779406,11.5708308 63.1206601,13.3681562 65.6208552,13.3503436 C68.0871771,13.3322389 69.7799628,11.5611944 69.776173,9.00376522" id="Fill-3" fill="#41EDC7"></path>
                <path d="M53.7794442,16.9660777 L49.8040113,16.9660777 L49.8040113,14.584147 C49.6708545,14.6104279 49.6326011,14.6075078 49.6264689,14.6203563 C47.4258767,18.9710228 39.7973907,18.1472608 37.4066996,13.0265622 C35.772024,9.52360257 36.3318084,3.43313665 41.6650908,1.28423035 C45.5260555,-0.271602341 50.150628,0.887095879 52.3339915,4.00109734 C53.2549931,5.31426919 53.7610475,6.79593118 53.8036811,8.37395668 C53.8784358,11.1182727 53.8355102,13.8660928 53.8393064,16.6124529 C53.8393064,16.7129045 53.8060172,16.8133562 53.7794442,16.9660777 M49.4317474,9.04616517 C49.4422101,6.47179937 47.7835897,4.72002754 45.3009153,4.68352621 C42.8287532,4.64731689 41.094502,6.39821269 41.0752293,8.94950965 C41.0550805,11.565925 42.7399819,13.3451458 45.2433892,13.3507033 C47.7175953,13.3553662 49.4208934,11.6053464 49.4317474,9.04616517" id="Fill-5" fill="#41EDC7"></path>
                <path d="M0.994228454,0.763546177 L6.80611622,0.763546177 C6.82217681,1.10198651 6.85020983,1.4199861 6.85050184,1.73798568 C6.85371396,5.45236102 6.85050184,9.16615234 6.854882,12.8802357 C6.85575803,13.3988466 6.85458999,13.9209616 6.91094804,14.4346083 C7.22836361,17.3444943 9.54955618,18.8217762 12.1723958,17.7971108 C13.2577993,17.3728194 13.934388,16.5344568 14.1861011,15.3789707 C14.3583874,14.5884979 14.4375223,13.7603557 14.4430705,12.9473981 C14.4693514,9.2336068 14.4547509,5.51952347 14.4547509,1.80514813 L14.4547509,0.772306496 L20.2418178,0.772306496 C20.2537902,1.0686973 20.276275,1.35807984 20.276275,1.64717037 C20.2791951,5.52536368 20.275399,9.40355699 20.2821152,13.2814583 C20.2829913,13.7437111 20.2891235,14.2138483 20.3670903,14.6667568 C20.8378115,17.4242132 22.8883102,18.7032198 25.4363951,17.8505488 C26.780812,17.4008524 27.6889651,16.1536749 27.7426951,14.4001511 C27.822414,11.8085566 27.7993451,9.21345807 27.8113176,6.61952755 C27.8200779,4.89870885 27.8297143,3.17818216 27.8043093,1.45823949 C27.796133,0.90166721 27.9459345,0.685579336 28.5054269,0.698427804 C30.0089897,0.733761092 31.5134285,0.715072411 33.0172833,0.706896113 C33.3881368,0.705436059 33.6708031,0.725000772 33.6658389,1.25500008 C33.6179492,5.89592518 33.7969517,10.5511588 33.5020209,15.1742713 C33.0257516,22.6424434 27.273434,24.5311682 22.5195008,23.5958581 C20.3813989,23.1753628 19.4452128,22.4967301 17.3585047,20.1530527 C17.284626,20.2044465 17.1850504,20.2426999 17.1292764,20.3177467 C14.7850149,23.4650373 11.6339281,24.2531741 8.07869859,23.621263 C4.11786627,22.9175174 1.46027744,19.9001715 1.17761114,15.6096591 C0.962983315,12.3464402 1.03657,9.06248856 0.997440571,5.78758924 C0.978167869,4.13042886 0.994228454,2.47268445 0.994228454,0.763546177" id="Fill-7" fill="#EB4CBB"></path>
                <path d="M81.1349425,15.4542511 L81.1349425,19.844339 C81.1349425,20.9545635 81.1591794,22.0653719 81.1127497,23.1735523 C81.1036974,23.3925603 80.8280394,23.7783064 80.6624693,23.7853146 C79.3971872,23.8364165 78.129569,23.8130556 76.811433,23.8130556 C76.7874881,23.5058604 76.755659,23.2769241 76.7550749,23.0479878 C76.7527389,18.4237073 76.7518628,13.7988427 76.755659,9.17456225 C76.757119,6.66151868 77.4795533,4.42646924 79.4001073,2.70010234 C82.0793049,0.291014559 86.7865165,-0.0739987407 90.0617078,1.84129905 C93.1079628,3.624024 94.622622,7.44585926 93.7813393,11.2291491 C92.8077759,15.6052206 88.4842663,18.3507046 84.2693847,17.1388604 C83.1734688,16.8231969 82.2115858,16.0479087 81.1349425,15.4542511 M89.5238706,8.9812512 C89.5138958,6.43608647 87.7857769,4.66971411 85.318579,4.68220405 C82.8461249,4.69541104 81.1460389,6.4588633 81.1428224,9.01424841 C81.1396147,11.5938704 82.8905105,13.3809755 85.3915816,13.3497304 C87.8561514,13.3196533 89.5340446,11.5453966 89.5238706,8.9812512" id="Fill-9" fill="#41EDC7"></path>
                <path d="M17.4834853,35.6151329 C12.4702466,35.6425819 8.0267207,34.2815203 3.99492979,31.6011546 C3.00676578,30.9441307 1.80455798,30.1881151 2.74454023,28.729814 C3.73416429,27.1961741 4.84468075,27.9445974 6.01330733,28.6696598 C13.5349174,33.3351138 21.0813484,33.3047447 28.5831017,28.619726 C29.6772656,27.9361291 30.7489446,27.2499041 31.692139,28.6001613 C32.7515536,30.1183246 31.5309491,30.9575632 30.4420414,31.6653969 C26.4601844,34.2520272 22.1045536,35.6384937 17.4834853,35.6151329" id="Fill-11" fill="#EB4CBB"></path>
                <path d="M96.4211155,1.59936823 L97.9769482,1.59936823 L97.9769482,3.89135974 L101.335655,3.89135974 C101.335655,4.34718835 101.341495,4.77994812 101.325726,5.21183186 C101.324266,5.24979324 101.182641,5.31286754 101.105258,5.31345156 C100.167904,5.32075183 99.2299659,5.31812373 98.2923197,5.31812373 L97.9789923,5.31812373 L97.9789923,5.60867432 C97.9789923,6.33402875 97.9787003,7.05938318 97.9792843,7.78502962 C97.9792843,7.88168514 97.9807443,7.97892468 97.9892127,8.07499618 C98.0663035,8.93847165 98.8442198,9.37648761 99.6276844,8.99278562 C100.005546,8.80735887 100.127607,8.46570642 100.15418,8.07587222 C100.178124,7.72487543 100.17608,7.72487543 100.536129,7.7242914 L101.713808,7.7242914 C101.801996,9.27515991 101.031087,10.3518031 99.5742464,10.5319737 C98.9461315,10.6096485 98.328821,10.5693511 97.7462598,10.3015773 C96.9712636,9.94561634 96.5910657,9.30144087 96.461121,8.48906727 C96.4281238,8.28290776 96.4138152,8.07207608 96.4132312,7.86358048 C96.4097271,5.84812304 96.4111872,3.83295762 96.4114792,1.81779219 C96.4114792,1.75384186 96.4170274,1.69018354 96.4211155,1.59936823" id="Fill-13" fill="#41EDC7"></path>
                <path d="M109.143201,3.89118454 C109.104948,4.00886483 109.082463,4.09121183 109.050926,4.17063872 C108.265125,6.17237166 107.475821,8.17293655 106.695276,10.1770056 C106.628406,10.3492919 106.539343,10.4062339 106.35888,10.4024378 C105.874142,10.3907574 105.389113,10.3939695 104.904375,10.4009777 C104.769466,10.4027298 104.70318,10.354256 104.654706,10.2304435 C103.854013,8.18228089 103.049523,6.13587033 102.246202,4.08916775 C102.226637,4.03806589 102.214373,3.98491995 102.185756,3.89118454 L102.78175,3.89118454 C103.072592,3.89118454 103.364311,3.90228094 103.654569,3.8873884 C103.833572,3.87804406 103.906867,3.94958667 103.963225,4.11136056 C104.485924,5.60061482 105.017091,7.08694898 105.54563,8.57474319 C105.582716,8.67811496 105.623013,8.78061069 105.686088,8.94910083 C105.92174,8.2894488 106.134032,7.69549916 106.346324,7.10096549 C106.703161,6.099369 107.062626,5.09923256 107.412162,4.09500796 C107.46706,3.93790624 107.542691,3.88388427 107.707677,3.88768041 C108.173726,3.89819279 108.639775,3.89118454 109.143201,3.89118454" id="Fill-15" fill="#41EDC7"></path>
            </g>
        </g>
    </g>
</svg>