<?xml version="1.0" encoding="UTF-8"?>
<svg width="220px" height="220px" viewBox="0 0 220 220" version="1.1" xmlns="http://www.w3.org/2000/svg" xmlns:xlink="http://www.w3.org/1999/xlink">
    <title>participative</title>
    <g id="Desktop-v3" stroke="none" stroke-width="1" fill="none" fill-rule="evenodd">
        <g id="participative">
            <circle id="Oval" fill="#41EDC7" cx="110" cy="110" r="110"></circle>
            <path d="M58.67025,57.07875 L55.1965,55.09525 C57.9390516,50.3040791 64.0426858,48.6375807 68.8395,51.37025 L66.85575,54.84425 C63.977845,53.2048872 60.3160175,54.2045029 58.67025,57.07875 L58.67025,57.07875 Z M49.91175,88.60925 L53.722,87.39075 C52.7164946,84.2348349 54.4555171,80.8605789 57.60925,79.84825 L56.39075,76.0385 C51.134824,77.7260263 48.2365266,83.3493898 49.91175,88.60925 L49.91175,88.60925 Z M75,142 L75,138 L59,138 L59,142 L75,142 Z M107.35275,94.59775 L110.64725,92.32875 C107.978458,88.4931803 103.020415,86.9994821 98.677,88.7225 L100.173,92.432 C102.778809,91.3992875 105.752668,92.2963433 107.35275,94.59775 Z M100.2475,106.85925 C101.443365,105.237527 102.128158,103.295873 102.21425,101.28275 L97.15,102.0625 C92.3445818,102.803864 88.7291726,106.831945 88.5095,111.68925 L93.57475,110.9095 C95.2536695,110.651381 96.8416402,109.978384 98.19475,108.9515 L100.61825,112.134 C98.7336995,113.564662 96.5220017,114.502565 94.1835,114.86275 L88.24,115.778 L84.684,130 L95,130 L95,134 L53.36075,134 L58.69425,166 L95,166 L95,170 L57,170 C56.0222261,170 55.1877216,169.293224 55.027,168.32875 L49.027,132.32875 C48.9303587,131.748815 49.0937848,131.155734 49.4738376,130.707154 C49.8538904,130.258574 50.412068,129.99994 51,130 L66.681,130 L68.3,125.14225 L62.66825,122.76725 C54.9795344,119.515299 51.3741868,110.653192 54.609,102.95725 C55.0380853,101.939488 56.210958,101.462235 57.22875,101.89125 L64.48425,104.95 C68.0326525,106.444826 70.8740653,109.24151 72.425,112.76575 L74.033,107.942 L72.0275,100.586 L66.937,99.5155 C60.1551731,98.0885488 55.813727,91.4345747 57.2395,84.6525 C57.3486807,84.1333928 57.6596159,83.6789239 58.1038958,83.3890823 C58.5481757,83.0992408 59.0894027,82.9977719 59.6085,83.107 L65.8025,84.4095 C66.6550789,84.5887394 67.4866546,84.8563518 68.28375,85.208 L71.067,77.8445 L67.507,75.5375 C64.5637573,73.6360974 62.6336894,70.5099531 62.2525,67.02675 L66.2275,66.584 C66.477918,68.8745693 67.7470296,70.9304016 69.6825,72.18075 L72.65375,74.10575 C73.7113784,70.8040001 72.428467,67.2028578 69.5215,65.3135 L66.5485,63.38675 C66.445935,63.7050474 66.3644256,64.0297489 66.3045,64.35875 L62.3695,63.64125 C62.6451993,62.1264651 63.2196976,60.6817209 64.0595,59.39125 C64.6600057,58.4644588 65.8980262,58.1997762 66.825,58.8 L71.69625,61.95725 C73.2882311,62.9870296 74.6035255,64.391338 75.527,66.04725 L77.0825,61.93225 L73.151,59.74875 C72.4692305,59.3701492 72.0696975,58.6297979 72.1274677,57.852102 C72.1852378,57.0744062 72.6897742,56.4012126 73.42,56.1275 L89.42,50.1275 C89.9932419,49.912569 90.6333488,49.9720253 91.1571977,50.2888595 C91.6810466,50.6056938 92.0309291,51.1450028 92.10675,51.7525 L94.10675,67.7525 C94.2001411,68.5000533 93.8655315,69.236664 93.241101,69.6581427 C92.6166704,70.0796215 91.8083723,70.1144517 91.15,69.74825 L87.15825,67.5295 L85.23325,74.692 C86.9288725,73.8736585 88.7877325,73.4497335 90.6705,73.452 L97,73.452 C98.1045695,73.452 99,74.3474305 99,75.452 C98.992697,82.3801463 93.3781463,87.994697 86.45,88.002 L82.97875,88.002 L88.26,102.52275 C90.4348467,100.148991 93.3570627,98.5916703 96.54025,98.11 L103.775,96.996 C104.299329,96.9148113 104.834423,97.045456 105.262343,97.3591391 C105.690263,97.6728222 105.975883,98.1437942 106.05625,98.66825 C106.639707,102.390914 105.709598,106.192279 103.47325,109.225 L100.2475,106.85925 Z M71.76625,96.4435 C71.6464691,92.4961322 68.8428881,89.1425337 64.97925,88.325 L60.97125,87.482 C61.088355,91.4317373 63.8944283,94.7877841 67.761,95.6025 L71.76625,96.4435 Z M82.3575,84.00125 L86.45,84.00125 C90.3998107,83.9958987 93.8337712,81.2902039 94.763,77.45125 L90.6705,77.45125 C86.7206264,77.4564202 83.2865674,80.1621926 82.3575,84.00125 L82.3575,84.00125 Z M62.93,108.63675 L57.682,106.425 C56.5218234,111.66997 59.2734468,116.99516 64.22275,119.08325 L69.46875,121.295 C70.6240172,116.051229 67.8749634,110.729384 62.93,108.63675 L62.93,108.63675 Z M85.55,106.775 L78.243,86.684 L78.243,86.684 C78.1627695,86.4654621 78.1214777,86.2345493 78.121,86.00175 C78.1188773,83.8892849 78.6533361,81.8108913 79.67425,79.9615 L83.961,64.01875 C84.1208402,63.4240971 84.5456891,62.9362216 85.1127277,62.6961629 C85.6797663,62.4561042 86.325775,62.4906266 86.864,62.78975 L89.649,64.33775 L88.45225,54.76275 L78.87725,58.3535 L80.53575,59.2745 C81.4034667,59.7563035 81.7865818,60.801569 81.43575,61.73 L76.80525,73.98 C76.5538497,75.2834441 76.0802893,76.5339818 75.40525,77.677 L72.223,86.1 L72.95475,88.78225 C75.1858426,91.5239534 76.1555625,95.080259 75.625,98.575 L78.0515,107.475 C78.1554055,107.855861 78.1442712,108.258955 78.0195,108.6335 L70.8975,130 L80.561,130 L84.6045,113.82325 C84.3118526,111.431636 84.6373872,109.004932 85.55,106.775 L85.55,106.775 Z M142.1095,93.8475 L139.8905,90.51925 C136.930933,92.4997536 133.069067,92.4997536 130.1095,90.51925 L127.8905,93.8475 C132.192978,96.7264778 137.807022,96.7264778 142.1095,93.8475 L142.1095,93.8475 Z M171,130.1975 L171,133.999993 L167,133.999993 L167,130.1975 C166.991193,126.386987 164.302758,123.1086 160.56775,122.35375 L150.199,120.27875 L144.8385,132.787 C144.56163,133.433134 143.965872,133.886476 143.269311,133.981075 C142.57275,134.075675 141.877665,133.79764 141.4385,133.24875 L141.202,132.953 L141.012,134.09375 L141.45,140.2345 C141.45,140.2345 150.75175,138.0155 150.77325,138.013 C150.825,138.00775 163,137.999993 163,137.999993 C163.394894,138.00001 163.780948,138.116922 164.1095,138.336 L167,140.263 L167,137.999993 L171,137.999993 L171,159.999993 C170.9938,165.520277 166.520277,169.9938 161,169.999993 L109,169.999993 C104.250096,169.993894 100.157582,166.65264 99.20125,161.999993 L97.48525,161.999993 C95.3623171,162.00574 93.3253117,161.161969 91.82825,159.65675 L80.82825,148.65675 C78.4082669,146.215715 78.4168501,142.277665 80.8474508,139.847202 C83.2780515,137.416739 87.2161019,137.408379 89.657,139.8285 L91.479,141.65075 C92.422995,139.43869 94.5949369,138.002498 97,137.999993 L99,137.999993 L99,130.1975 C99.0130961,124.481775 103.045389,119.564051 108.64775,118.43125 L120.21975,116.1165 L125,112.92975 L125,108.82825 C118.961463,106.378891 115.007855,100.516381 115,93.9999931 L115,87.9999931 C110.581722,87.9999931 107,84.418278 107,79.9999931 C107,75.581722 110.581722,71.9999931 115,71.9999931 L115,63.9999931 C114.998625,62.9206016 115.17325,61.8482 115.517,60.825 C114.58809,58.3676297 114.925318,55.6107622 116.419162,53.44975 C117.913005,51.2887378 120.372922,49.9999931 123,49.9999931 L124.75,49.9999931 L124.75,53.9999931 L123,53.9999931 C120.790861,53.9999931 119,55.790861 119,57.9999931 C119,60.209139 120.790861,61.9999931 123,61.9999931 L143,61.9999931 L143,57.1 C139.61386,55.0675303 135.738036,53.9958341 131.78875,53.9999931 L128.5,53.9999931 L128.5,49.9999931 L131.78875,49.9999931 C136.687149,49.9964036 141.484756,51.3914087 145.6175,54.021 C150.887134,54.3527304 154.993291,58.7199388 155,63.9999931 L155,71.9999931 C159.418278,71.9999931 163,75.581722 163,79.9999931 C163,84.418278 159.418278,87.9999931 155,87.9999931 L155,93.9999931 C154.992145,100.516381 151.038537,106.378891 145,108.82825 L145,112.92975 L149.78025,116.1165 L161.35225,118.43125 C166.954611,119.564051 170.986904,124.481775 171,130.1975 Z M155,84 C157.209139,84 159,82.209139 159,80 C159,77.790861 157.209139,76 155,76 L155,84 Z M115,76 C112.790861,76 111,77.790861 111,80 C111,82.209139 112.790861,84 115,84 L115,76 Z M147,63.2985 L151,68.2985 L151,64 C150.997029,61.4581553 149.395428,59.1929907 147,58.34275 L147,63.2985 Z M119.475,74.1075 L126.07025,84 L131,84 L131,80 L135,80 L135,84 L143.92975,84 L150.52475,74.1075 L144.03875,66 L125.96125,66 L119.475,74.1075 Z M119,68.2985 L121.03475,65.755 C120.3213,65.5734136 119.636514,65.2936601 119,64.92375 L119,68.2985 Z M131,106 L139,106 C145.624333,105.99256 150.99256,100.624333 151,94 L151,80.6055 L146.664,87.1095 C146.293065,87.6658298 145.668652,87.9999886 145,88 L125,88 C124.331348,87.9999886 123.706935,87.6658298 123.336,87.1095 L119,80.6055 L119,94 C119.00744,100.624333 124.375667,105.99256 131,106 L131,106 Z M137.027,133.67125 L137.8455,128.7585 L135,125.2015 L132.1545,128.7585 L132.973,133.67125 C132.998725,133.826935 133.006025,133.985108 132.99475,134.1425 L132.4045,142.406 L137.507,141.181 L137.00525,134.14175 C136.99402,133.984606 137.00132,133.826687 137.027,133.67125 L137.027,133.67125 Z M135,119.17125 L141,113.17125 L141,109.87125 C140.336682,109.956039 139.668713,109.99929 139,110.00075 L131,110.00075 C130.331287,109.99929 129.663318,109.956039 129,109.87125 L129,113.17125 L135,119.17125 Z M123.49375,118.741 L127.5235,128.144 L132.32,122.14825 L126.745,116.57325 L123.49375,118.741 Z M103,138 L107.78875,138 C110.46436,137.997075 112.963549,139.334618 114.44525,141.5625 L116.147,144.115 L122.392,144.809 L128.3245,143.38525 L128.98825,134.09425 L128.79825,132.95375 L128.56175,133.25 C128.122585,133.79889 127.4275,134.076925 126.730939,133.982325 C126.034378,133.887726 125.43862,133.434384 125.16175,132.78825 L119.8,120.2795 L109.43125,122.3545 C105.696915,123.109708 103.009066,126.387577 103,130.1975 L103,138 Z M113,158.000016 L113,146.6055 L111.11725,143.7805 C110.376069,142.666891 109.126462,141.998444 107.78875,141.999985 L97,141.999985 C95.8954305,141.999985 95,142.895431 95,144 C95,145.104569 95.8954305,146 97,146 L105,146 C106.104569,146 107,146.895431 107,148 C107,149.104569 106.104569,150 105,150 L95,150 C94.4695596,150.000019 93.9608377,149.789318 93.58575,149.41425 L86.82825,142.65675 C86.2616714,142.090261 85.4359128,141.869069 84.6620295,142.076496 C83.8881461,142.283923 83.2837093,142.888455 83.0764045,143.662371 C82.8690997,144.436287 83.0904214,145.262011 83.657,145.8285 L94.657,156.8285 C95.4054034,157.581132 96.4238579,158.00299 97.48525,158.000016 L113,158.000016 Z M120.853,163.21025 L114.80175,162 L103.344,162 C104.1939,164.395138 106.458543,165.996724 109,166 L114.575,166 L120.853,163.21025 Z M135.16675,166 L127.6455,164.56875 L124.425,166 L135.16675,166 Z M153,148.21 L167,149.7655 L167,145.07025 L162.3945,142 L153,142 L153,148.21 Z M117,148.235 L117,158.36 L155.198,166 L161,166 C164.312109,165.996143 166.996143,163.312109 167,160 L167,153.79 L117,148.235 Z M134.1075,146.11 L149,147.7655 L149,142.5365 L134.1075,146.11 Z M146.50625,118.7405 L143.25625,116.57275 L137.68125,122.14775 L142.47775,128.1435 L146.50625,118.7405 Z" id="Shape" fill="#101418" fill-rule="nonzero"></path>
            <rect id="Rectangle" fill="#41EDC7" x="115" y="50" width="10" height="8"></rect>
            <polygon id="Path-4" fill="#41EDC7" fill-rule="nonzero" points="128.338366 143.390522 132.39072 142.419341 141.454855 140.249404 141.195594 132.938306 137.805764 128.703047 132.130592 128.703047 128.776332 132.938306"></polygon>
            <line x1="135" y1="125.5" x2="135" y2="142.5" id="Line" stroke="#101418" stroke-width="4" fill="#D8D8D8" stroke-linecap="square"></line>
            <polygon id="Path-5" fill="#41EDC7" points="119.475 74.3291003 119 80.6055 123 89.290185 147 89.290185 151 80.6055 150.52475 74.1075"></polygon>
            <path d="M131,76 C131,73.790861 129.209139,72 127,72 C124.790861,72 123,73.790861 123,76 C123.002617,78.2080539 124.791946,79.9973826 127,80 C129.209139,80 131,78.209139 131,76 Z" id="Path" fill="#101418" fill-rule="nonzero"></path>
            <path d="M147,76 C147,73.790861 145.209139,72 143,72 C140.790861,72 139,73.790861 139,76 C139.002617,78.2080539 140.791946,79.9973826 143,80 C145.209139,80 147,78.209139 147,76 Z" id="Path" fill="#101418" fill-rule="nonzero"></path>
            <polyline id="Path-6" stroke="#101418" stroke-width="4" points="116.995373 58 116.995373 52.0297019 128.977647 52.0297019"></polyline>
        </g>
    </g>
</svg>