<?xml version="1.0" encoding="UTF-8"?>
<svg width="22px" height="18px" viewBox="0 0 22 18" version="1.1" xmlns="http://www.w3.org/2000/svg" xmlns:xlink="http://www.w3.org/1999/xlink">
    <title>twitter</title>
    <g id="Desktop-v3" stroke="none" stroke-width="1" fill="none" fill-rule="evenodd">
        <path d="M19.3796719,4.37551875 C19.3933828,4.5673875 19.3933828,4.75929844 19.3933828,4.95116719 C19.3933828,10.8034172 14.9391,17.5465828 6.79796719,17.5465828 C4.28983594,17.5465828 1.95990469,16.8201563 0,15.5592984 C0.356357812,15.6003891 0.6989625,15.6141 1.06903125,15.6141 C3.13853906,15.6141 5.04364219,14.9151375 6.56496563,13.72275 C4.61877187,13.6816172 2.98780313,12.4070063 2.42586563,10.6526813 C2.7,10.6937719 2.97409219,10.7211938 3.2619375,10.7211938 C3.65938594,10.7211938 4.05687656,10.66635 4.42690312,10.5704578 C2.39848594,10.1592563 0.877120313,8.37755156 0.877120313,6.22577813 L0.877120313,6.17097656 C1.4664375,6.4999125 2.15177344,6.70549219 2.87811562,6.73287188 C1.68572813,5.93793281 0.904542188,4.58109844 0.904542188,3.04606406 C0.904542188,2.22374531 1.12379063,1.46993906 1.50757031,0.812067188 C3.68676563,3.49835625 6.96241406,5.25263906 10.6354688,5.44455 C10.5669563,5.11561406 10.5258234,4.77300938 10.5258234,4.4303625 C10.5258234,1.99074375 12.4994391,0.003459375 14.9527266,0.003459375 C16.2273375,0.003459375 17.3785922,0.537975 18.1872422,1.40142656 C19.1877188,1.20955781 20.1471047,0.839489063 20.9968875,0.332395313 C20.6679094,1.36033594 19.9689469,2.2237875 19.0506938,2.77197188 C19.9415672,2.67607969 20.8050188,2.429325 21.5999156,2.08672031 C20.9969719,2.96384063 20.2431234,3.74502656 19.3796719,4.37551875 Z" id="twitter" fill="#FFFFFF" fill-rule="nonzero"></path>
    </g>
</svg>