<?xml version="1.0" encoding="UTF-8"?>
<svg width="22px" height="18px" viewBox="0 0 22 18" version="1.1" xmlns="http://www.w3.org/2000/svg" xmlns:xlink="http://www.w3.org/1999/xlink">
    <title>twitter</title>
    <g id="Desktop-v3" stroke="none" stroke-width="1" fill="none" fill-rule="evenodd">
        <g id="Programa-v3" transform="translate(-1338.000000, -2545.000000)" fill="#52CEFB" fill-rule="nonzero">
            <g id="Group-10" transform="translate(0.000000, 2532.000000)">
                <path d="M1357.37967,17.3755188 C1357.39338,17.5673875 1357.39338,17.7592984 1357.39338,17.9511672 C1357.39338,23.8034172 1352.9391,30.5465828 1344.79797,30.5465828 C1342.28984,30.5465828 1339.9599,29.8201563 1338,28.5592984 C1338.35636,28.6003891 1338.69896,28.6141 1339.06903,28.6141 C1341.13854,28.6141 1343.04364,27.9151375 1344.56497,26.72275 C1342.61877,26.6816172 1340.9878,25.4070063 1340.42587,23.6526813 C1340.7,23.6937719 1340.97409,23.7211938 1341.26194,23.7211938 C1341.65939,23.7211938 1342.05688,23.66635 1342.4269,23.5704578 C1340.39849,23.1592563 1338.87712,21.3775516 1338.87712,19.2257781 L1338.87712,19.1709766 C1339.46644,19.4999125 1340.15177,19.7054922 1340.87812,19.7328719 C1339.68573,18.9379328 1338.90454,17.5810984 1338.90454,16.0460641 C1338.90454,15.2237453 1339.12379,14.4699391 1339.50757,13.8120672 C1341.68677,16.4983563 1344.96241,18.2526391 1348.63547,18.44455 C1348.56696,18.1156141 1348.52582,17.7730094 1348.52582,17.4303625 C1348.52582,14.9907438 1350.49944,13.0034594 1352.95273,13.0034594 C1354.22734,13.0034594 1355.37859,13.537975 1356.18724,14.4014266 C1357.18772,14.2095578 1358.1471,13.8394891 1358.99689,13.3323953 C1358.66791,14.3603359 1357.96895,15.2237875 1357.05069,15.7719719 C1357.94157,15.6760797 1358.80502,15.429325 1359.59992,15.0867203 C1358.99697,15.9638406 1358.24312,16.7450266 1357.37967,17.3755188 Z" id="twitter"></path>
            </g>
        </g>
    </g>
</svg>