<?xml version="1.0" encoding="UTF-8"?>
<svg width="18px" height="18px" viewBox="0 0 18 18" version="1.1" xmlns="http://www.w3.org/2000/svg" xmlns:xlink="http://www.w3.org/1999/xlink">
    <title>Shape</title>
    <g id="Desktop-v3" stroke="none" stroke-width="1" fill="none" fill-rule="evenodd">
        <g id="Programa-v3" transform="translate(-398.000000, -479.000000)" fill="#FFFFFF" fill-rule="nonzero">
            <path d="M413.304018,481.615625 C411.620536,479.928125 409.378571,479 406.995982,479 C402.078125,479 398.076339,483.001786 398.076339,487.919643 C398.076339,489.490625 398.486161,491.025446 399.265625,492.379464 L398,497 L402.729018,495.758482 C404.030804,496.469643 405.497321,496.843304 406.991964,496.843304 L406.995982,496.843304 C411.909821,496.843304 416,492.841518 416,487.923661 C416,485.541071 414.9875,483.303125 413.304018,481.615625 Z M406.995982,495.340625 C405.662054,495.340625 404.35625,494.983036 403.219196,494.308036 L402.95,494.147321 L400.145536,494.882589 L400.892857,492.146429 L400.716071,491.865179 C399.972768,490.683929 399.583036,489.321875 399.583036,487.919643 C399.583036,483.833482 402.909821,480.506696 407,480.506696 C408.980804,480.506696 410.841071,481.278125 412.239286,482.680357 C413.6375,484.082589 414.497321,485.942857 414.493318,487.923661 C414.493318,492.013839 411.082143,495.340625 406.995982,495.340625 Z M411.062054,489.787946 C410.841071,489.675446 409.744196,489.137054 409.539286,489.064732 C409.334375,488.988393 409.185714,488.952232 409.037054,489.177232 C408.888393,489.402232 408.4625,489.900446 408.329911,490.053125 C408.201339,490.201786 408.06875,490.221875 407.847768,490.109375 C406.537946,489.454464 405.678125,488.940179 404.814286,487.457589 C404.585268,487.063839 405.043304,487.091964 405.469196,486.240179 C405.541518,486.091518 405.505357,485.962946 405.449107,485.850446 C405.392857,485.737946 404.946875,484.641071 404.762054,484.195089 C404.58125,483.761161 404.396429,483.821429 404.259821,483.813393 C404.13125,483.805357 403.982589,483.805357 403.833929,483.805357 C403.685268,483.805357 403.444196,483.861607 403.239286,484.082589 C403.034375,484.307589 402.459821,484.845982 402.459821,485.942857 C402.459821,487.039732 403.259375,488.100446 403.367857,488.249107 C403.480357,488.397768 404.938839,490.647768 407.176786,491.616071 C408.591071,492.226786 409.145536,492.279018 409.852679,492.174554 C410.282589,492.110268 411.170536,491.636161 411.355357,491.113839 C411.540179,490.591518 411.540179,490.145536 411.483929,490.053125 C411.431696,489.952679 411.283036,489.896429 411.062054,489.787946 Z" id="Shape"></path>
        </g>
    </g>
</svg>