<?xml version="1.0" encoding="UTF-8"?>
<svg width="24px" height="16px" viewBox="0 0 24 16" version="1.1" xmlns="http://www.w3.org/2000/svg" xmlns:xlink="http://www.w3.org/1999/xlink">
    <title>youtube</title>
    <g id="Desktop-v3" stroke="none" stroke-width="1" fill="none" fill-rule="evenodd">
        <path d="M23.4984967,2.50345833 C23.2224765,1.51804167 22.4092256,0.741958333 21.3766438,0.478583333 C19.5050153,0 12,0 12,0 C12,0 4.49502869,0 2.62335617,0.478583333 C1.59077443,0.742 0.777523465,1.51804167 0.501503294,2.50345833 C0,4.28958333 0,8.01616667 0,8.01616667 C0,8.01616667 0,11.74275 0.501503294,13.528875 C0.777523465,14.5142917 1.59077443,15.2580417 2.62335617,15.5214167 C4.49502869,16 12,16 12,16 C12,16 19.5049713,16 21.3766438,15.5214167 C22.4092256,15.2580417 23.2224765,14.5142917 23.4984967,13.528875 C24,11.74275 24,8.01616667 24,8.01616667 C24,8.01616667 24,4.28958333 23.4984967,2.50345833 Z M9.54543757,11.399625 L9.54543757,4.63270833 L15.8181399,8.01625 L9.54543757,11.399625 Z" id="youtube" fill="#FFFFFF" fill-rule="nonzero"></path>
    </g>
</svg>