<?xml version="1.0" encoding="UTF-8"?>
<svg width="24px" height="16px" viewBox="0 0 24 16" version="1.1" xmlns="http://www.w3.org/2000/svg" xmlns:xlink="http://www.w3.org/1999/xlink">
    <title>youtube</title>
    <g id="Desktop-v3" stroke="none" stroke-width="1" fill="none" fill-rule="evenodd">
        <g id="Programa-v3" transform="translate(-1296.000000, -2546.000000)" fill="#52CEFB" fill-rule="nonzero">
            <g id="Group-10" transform="translate(0.000000, 2532.000000)">
                <path d="M1319.4985,16.5034583 C1319.22248,15.5180417 1318.40923,14.7419583 1317.37664,14.4785833 C1315.50502,14 1308,14 1308,14 C1308,14 1300.49503,14 1298.62336,14.4785833 C1297.59077,14.742 1296.77752,15.5180417 1296.5015,16.5034583 C1296,18.2895833 1296,22.0161667 1296,22.0161667 C1296,22.0161667 1296,25.74275 1296.5015,27.528875 C1296.77752,28.5142917 1297.59077,29.2580417 1298.62336,29.5214167 C1300.49503,30 1308,30 1308,30 C1308,30 1315.50497,30 1317.37664,29.5214167 C1318.40923,29.2580417 1319.22248,28.5142917 1319.4985,27.528875 C1320,25.74275 1320,22.0161667 1320,22.0161667 C1320,22.0161667 1320,18.2895833 1319.4985,16.5034583 Z M1305.54544,25.399625 L1305.54544,18.6327083 L1311.81814,22.01625 L1305.54544,25.399625 Z" id="youtube"></path>
            </g>
        </g>
    </g>
</svg>